<?xml version="1.0" encoding="UTF-8" standalone="no"?>
<svg
   xmlns:dc="http://purl.org/dc/elements/1.1/"
   xmlns:cc="http://creativecommons.org/ns#"
   xmlns:rdf="http://www.w3.org/1999/02/22-rdf-syntax-ns#"
   xmlns:svg="http://www.w3.org/2000/svg"
   xmlns="http://www.w3.org/2000/svg"
   xmlns:sodipodi="http://sodipodi.sourceforge.net/DTD/sodipodi-0.dtd"
   xmlns:inkscape="http://www.inkscape.org/namespaces/inkscape"
   height="512pt"
   viewBox="0 0 512 512"
   width="512pt"
   version="1.1"
   id="svg34"
   sodipodi:docname="hercules.svg"
   inkscape:version="0.92.4 (5da689c313, 2019-01-14)">
  <metadata
     id="metadata40">
    <rdf:RDF>
      <cc:Work
         rdf:about="">
        <dc:format>image/svg+xml</dc:format>
        <dc:type
           rdf:resource="http://purl.org/dc/dcmitype/StillImage" />
      </cc:Work>
    </rdf:RDF>
  </metadata>
  <defs
     id="defs38" />
  <sodipodi:namedview
     pagecolor="#ffffff"
     bordercolor="#666666"
     borderopacity="1"
     objecttolerance="10"
     gridtolerance="10"
     guidetolerance="10"
     inkscape:pageopacity="0"
     inkscape:pageshadow="2"
     inkscape:window-width="1280"
     inkscape:window-height="961"
     id="namedview36"
     showgrid="false"
     inkscape:zoom="2.86"
     inkscape:cx="341.33333"
     inkscape:cy="397.69182"
     inkscape:window-x="1912"
     inkscape:window-y="50"
     inkscape:window-maximized="1"
     inkscape:current-layer="svg34" />
  <path
     d="m512 256c0 141.386719-114.613281 256-256 256s-256-114.613281-256-256 114.613281-256 256-256 256 114.613281 256 256zm0 0"
     id="path2"
     fill="#0adebf" />
  <path
     d="m337.953125 103.128906-190.117187 132.722656 239.761718 239.761719c69.046875-41.460937 116.929688-114.554687 123.597656-199.246093zm0 0"
     id="path4"
     fill="#00ad90" />
  <path
     d="m439.578125 434.394531-32.839844-41.519531-101.933593-37.121094c-9.402344-3.425781-15.65625-12.363281-15.65625-22.371094v-22.078124h-66.296876v22.078124c0 10.007813-6.253906 18.945313-15.65625 22.371094l-101.933593 37.121094-31.484375 42.910156c46.417968 47.046875 110.910156 76.214844 182.222656 76.214844 72.011719 0 137.066406-29.746094 183.578125-77.605469zm0 0"
     id="path6"
     fill="#faa68e" />
  <path
     d="m406.738281 392.875-101.933593-37.121094c-9.402344-3.425781-15.65625-12.363281-15.65625-22.371094v-22.078124h-33.339844v200.691406c.0625 0 .128906.003906.191406.003906 72.011719 0 137.066406-29.746094 183.582031-77.605469zm0 0"
     id="path8"
     fill="#e09380" />
  <path
     d="m256 512c43.710938 0 84.847656-10.976562 120.84375-30.292969l13.671875-94.738281-22.074219-8.039062c-7.953125 18.433593-47.878906 80.292968-230.601562 104.210937 35.351562 18.429687 75.535156 28.859375 118.160156 28.859375zm0 0"
     id="path10"
     fill="#00617e" />
  <path
     d="m368.441406 378.929688c-5.828125 13.507812-28.835937 50.34375-112.632812 78.472656v54.597656h.191406c43.710938 0 84.847656-10.976562 120.84375-30.292969l13.671875-94.738281zm0 0"
     id="path12"
     fill="#034051" />
  <path
     d="m198.667969 218.238281c0 15.726563-12.746094 28.472657-28.472657 28.472657-15.722656 0-28.46875-12.746094-28.46875-28.472657 0-15.722656 12.746094-28.46875 28.46875-28.46875 15.726563 0 28.472657 12.746094 28.472657 28.46875zm0 0"
     id="path14"
     fill="#ffbeaa" />
  <path
     d="m370.273438 218.238281c0 15.726563-12.746094 28.472657-28.46875 28.472657-15.726563 0-28.472657-12.746094-28.472657-28.472657 0-15.722656 12.746094-28.46875 28.472657-28.46875 15.722656 0 28.46875 12.746094 28.46875 28.46875zm0 0"
     id="path16"
     fill="#faa68e" />
  <path
     d="m293.910156 324.835938-19.011718 9.765624c-11.863282 6.09375-25.933594 6.09375-37.792969 0l-19.011719-9.765624c-28.175781-14.476563-45.890625-43.488282-45.890625-75.164063v-74.109375c0-46.28125 37.515625-83.800781 83.800781-83.800781 46.277344 0 83.796875 37.519531 83.796875 83.800781v74.109375c0 31.675781-17.714843 60.691406-45.890625 75.164063zm0 0"
     id="path18"
     fill="#ffbeaa" />
  <path
     d="m256 91.761719c-.0625 0-.128906.003906-.191406.003906v247.398437c6.546875.03125 13.097656-1.484374 19.089844-4.5625l19.011718-9.765624c28.175782-14.476563 45.890625-43.488282 45.890625-75.164063v-74.109375c0-46.28125-37.519531-83.800781-83.800781-83.800781zm0 0"
     id="path20"
     fill="#faa68e" />
  <path
     d="m186 240.238281v-50.46875h-16.5v135.734375c0 31.753906 25.742188 57.496094 57.496094 57.496094h58.007812c31.753906 0 57.496094-25.742188 57.496094-57.496094v-135.734375h-16.5v50.46875c0 11.261719-9.128906 20.390625-20.390625 20.390625h-99.222656c-11.257813 0-20.386719-9.128906-20.386719-20.390625zm0 0"
     id="path22"
     fill="#00617e" />
  <path
     d="m326 189.769531v50.46875c0 11.261719-9.128906 20.390625-20.390625 20.390625h-49.800781v122.371094h29.195312c31.753906 0 57.496094-25.742188 57.496094-57.496094v-135.734375zm0 0"
     id="path24"
     fill="#034051" />
  <path
     d="m227.667969 282.332031h56.667969v14.667969h-56.667969zm0 0"
     id="path26"
     fill="#ffbeaa" />
  <path
     d="m255.808594 282.332031h28.527344v14.667969h-28.527344zm0 0"
     id="path28"
     fill="#faa68e" />
  <path
     d="m345.714844 131.46875c.289062-1.839844.449218-3.726562.449218-5.652344 0-18.953125-14.699218-34.316406-32.832031-34.316406-7.519531 0-14.445312 2.648438-19.980469 7.09375-6.703124-9.066406-17.207031-14.914062-29.015624-14.914062-4.257813 0-8.339844.765624-12.140626 2.160156-5.792968-4.003906-12.730468-6.339844-20.195312-6.339844-15.6875 0-29.070312 10.300781-34.304688 24.785156-2.789062-.710937-5.699218-1.09375-8.695312-1.09375-20.25 0-36.667969 17.160156-36.667969 38.324219 0 2.898437.320313 5.71875.902344 8.429687-8.371094 7.023438-13.734375 17.800782-13.734375 29.894532 0 21.167968 16.414062 38.324218 36.667969 38.324218 20.25 0 36.667969-17.15625 36.667969-38.324218 0-.203125-.015626-.410156-.015626-.613282 2.113282.394532 4.289063.613282 6.515626.613282 14.519531 0 27.066406-8.820313 33.003906-21.617188 3.761718 1.359375 7.792968 2.105469 11.996094 2.105469 9.851562 0 18.792968-4.070313 25.378906-10.679687 5.121094 5.539062 12.003906 9.28125 19.707031 10.238281-.292969 1.835937-.453125 3.722656-.453125 5.648437 0 18.953125 14.703125 34.320313 32.835938 34.320313 18.132812 0 32.832031-15.367188 32.832031-34.320313 0-17.566406-12.636719-32.042968-28.921875-34.066406zm0 0"
     id="path30"
     fill="#00617e" />
  <path
     d="m345.714844 131.46875c.289062-1.839844.449218-3.726562.449218-5.652344 0-18.953125-14.699218-34.316406-32.832031-34.316406-7.519531 0-14.445312 2.648438-19.980469 7.09375-6.703124-9.066406-17.207031-14.914062-29.015624-14.914062-2.9375 0-5.789063.375-8.527344 1.058593v74.535157c2.738281.6875 5.589844 1.058593 8.527344 1.058593 9.851562 0 18.792968-4.070312 25.378906-10.683593 5.121094 5.542968 12.003906 9.28125 19.707031 10.238281-.292969 1.839843-.453125 3.726562-.453125 5.652343 0 18.953126 14.703125 34.316407 32.835938 34.316407 18.132812 0 32.832031-15.363281 32.832031-34.316407 0-17.570312-12.636719-32.046874-28.921875-34.070312zm0 0"
     id="path32"
     fill="#034051" />
  <ellipse
     style="opacity:0.86799999;fill:#a94343;fill-opacity:1;stroke-width:1.44845426"
     id="path7182"
     cx="228.28282"
     cy="217.58719"
     rx="16.302555"
     ry="15.212637" />
  <ellipse
     style="opacity:0.86799999;fill:#ffffff;fill-opacity:1;stroke-width:1.72246754"
     id="path7198"
     cx="228.51003"
     cy="218.87271"
     rx="9.0772343"
     ry="9.5549393" />
  <ellipse
     style="opacity:0.86799999;fill:#000000;fill-opacity:1;stroke-width:3.18100071"
     id="path7200"
     cx="228.24088"
     cy="219.61687"
     rx="6.0658784"
     ry="5.9191313" />
  <ellipse
     style="opacity:0.86799999;fill:#a94343;fill-opacity:1;stroke-width:1.48998868"
     id="path7182-0"
     cx="284.61816"
     cy="216.77235"
     rx="17.250902"
     ry="15.212637" />
  <ellipse
     style="opacity:0.86799999;fill:#ffffff;fill-opacity:1;stroke-width:1.72246754"
     id="path7198-4"
     cx="284.52914"
     cy="216.91043"
     rx="9.0772343"
     ry="9.5549393" />
  <path
     style="opacity:0.86799999;fill:#000000;fill-opacity:1;stroke-width:1.72246754"
     id="path7289"
     d="m 210.30394,198.71925 c 1.22656,-1.33109 2.69464,-2.41654 4.28758,-3.36139 2.91116,-1.18412 7.65795,-4.66415 11.73495,-5.4027 1.19754,-0.1643 2.41244,-0.16058 3.62059,-0.16626 1.2249,-0.11593 2.37073,0.11052 3.5563,0.33365 1.12861,0.26853 2.06092,0.83866 3.01483,1.41461 0.81798,0.4279 1.62306,0.86494 2.45709,1.27076 0.87976,0.38633 1.74912,0.78888 2.66203,1.12167 1.11977,0.35411 2.30924,0.40806 3.48326,0.45021 1.24755,-0.0175 2.51853,0.13521 3.74685,-0.092 1.22866,-0.23381 2.51919,-0.44464 3.65377,-0.94654 3.22212,-1.2212 0.69036,-0.28403 -7.10066,3.72681 0,0 8.7727,-3.05841 8.7727,-3.05841 v 0 c -8.69158,4.48593 -5.47745,3.32966 -9.05729,4.5872 -1.24485,0.32991 -2.49164,0.66459 -3.78895,0.77585 -1.28135,0.0557 -2.56608,0.0248 -3.84702,-0.0311 -1.25294,-0.0862 -2.50852,-0.22695 -3.67378,-0.68284 -0.92785,-0.36899 -1.83709,-0.76321 -2.73255,-1.19298 -0.83611,-0.43969 -1.68511,-0.85457 -2.49553,-1.33343 -0.85969,-0.53211 -1.77008,-0.96516 -2.8057,-1.14078 -1.13573,-0.20894 -2.26913,-0.24373 -3.42772,-0.19034 -1.17133,0.0248 -2.35642,0.0497 -3.4935,0.33364 -3.42623,0.99863 -9.26439,4.16201 4.43614,-2.83098 -1.63073,0.81771 -3.11863,1.81642 -4.36439,3.08327 0,0 -8.639,3.33076 -8.639,3.33076 z"
     inkscape:connector-curvature="0" />
  <path
     style="opacity:0.86799999;fill:#000000;fill-opacity:1;stroke-width:1.72246754"
     id="path7291"
     d="m 270.6309,197.82106 c 0.44648,-1.57319 0.84194,-3.18322 1.88131,-4.53007 2.7672,-2.47878 0.80119,-0.78819 9.03614,-4.85359 0.18635,-0.0918 1.05,-0.11592 1.24392,-0.15008 0.35231,-0.0626 0.68689,-0.18967 1.0337,-0.27349 1.12822,-0.23316 2.28939,-0.26108 3.44113,-0.28712 1.25428,-0.0196 2.50882,-0.0135 3.76319,-0.0135 1.26574,0.001 2.53146,0.002 3.79716,0.002 1.17376,-0.11967 2.12345,0.44343 3.16394,0.80545 0.81873,0.41428 1.62016,0.88565 2.49848,1.19034 0.9648,0.17436 1.57179,0.89052 2.48446,1.19005 0.94454,0.23134 1.8372,0.60838 2.72503,0.97847 0.98519,0.34357 2.05007,0.3752 3.09198,0.41303 0.65199,-0.22202 1.38474,-0.21025 2.04422,-0.38759 0.15574,-0.0435 0.29457,-0.12465 0.44216,-0.18727 -2.56975,1.31119 -5.13948,2.62244 -7.70931,3.93373 0.76842,-0.4378 1.5536,-0.85294 2.2437,-1.39017 0.12567,-0.0879 0.25081,-0.17613 0.37656,-0.26421 0,0 8.77857,-3.06904 8.77857,-3.06904 v 0 c -0.13934,0.0558 -0.27882,0.10981 -0.41825,0.1643 -0.75152,0.4775 -1.38005,1.09287 -2.20652,1.47987 -3.46684,1.78309 -6.92819,4.76455 -11.17714,4.68461 -1.13381,-0.0808 -2.27127,-0.20654 -3.30757,-0.66462 -0.88293,-0.37271 -1.80877,-0.65079 -2.71684,-0.96793 -0.83893,-0.39194 -1.54404,-0.97799 -2.48231,-1.18733 -0.83788,-0.37335 -1.64597,-0.8002 -2.48444,-1.1726 -0.95321,-0.37517 -1.87165,-0.64744 -2.93562,-0.54696 -1.2658,-9.4e-4 -2.53158,-0.002 -3.79736,-0.002 -1.24812,0 -2.49688,-0.002 -3.74424,0.0433 -1.12318,0.0557 -2.24647,0.14942 -3.33109,0.43845 -0.53987,0.12211 -1.10882,0.17982 -1.63724,0.3392 -0.18107,0.0557 -0.69192,0.28901 -0.52829,0.2004 6.66056,-3.62315 10.15291,-5.19976 6.95132,-3.7421 -1.33447,1.03367 -1.7132,2.64607 -2.06083,4.14918 0,0 -8.46033,3.67774 -8.46033,3.67774 z"
     inkscape:connector-curvature="0" />
  <ellipse
     style="opacity:0.86799999;fill:#000000;fill-opacity:1;stroke-width:3.18100071"
     id="path7200-9"
     cx="284.7178"
     cy="217.54556"
     rx="6.0658784"
     ry="5.9191313" />
</svg>
