<?xml version="1.0" encoding="UTF-8" standalone="no"?>
<svg
   xmlns:dc="http://purl.org/dc/elements/1.1/"
   xmlns:cc="http://creativecommons.org/ns#"
   xmlns:rdf="http://www.w3.org/1999/02/22-rdf-syntax-ns#"
   xmlns:svg="http://www.w3.org/2000/svg"
   xmlns="http://www.w3.org/2000/svg"
   xmlns:sodipodi="http://sodipodi.sourceforge.net/DTD/sodipodi-0.dtd"
   xmlns:inkscape="http://www.inkscape.org/namespaces/inkscape"
   height="512pt"
   viewBox="0 0 512 512"
   width="512pt"
   version="1.1"
   id="svg40"
   sodipodi:docname="jupiter.svg"
   inkscape:version="0.92.4 (5da689c313, 2019-01-14)">
  <metadata
     id="metadata46">
    <rdf:RDF>
      <cc:Work
         rdf:about="">
        <dc:format>image/svg+xml</dc:format>
        <dc:type
           rdf:resource="http://purl.org/dc/dcmitype/StillImage" />
      </cc:Work>
    </rdf:RDF>
  </metadata>
  <defs
     id="defs44" />
  <sodipodi:namedview
     pagecolor="#ffffff"
     bordercolor="#666666"
     borderopacity="1"
     objecttolerance="10"
     gridtolerance="10"
     guidetolerance="10"
     inkscape:pageopacity="0"
     inkscape:pageshadow="2"
     inkscape:window-width="1280"
     inkscape:window-height="961"
     id="namedview42"
     showgrid="false"
     inkscape:zoom="1.3828125"
     inkscape:cx="341.33333"
     inkscape:cy="341.33333"
     inkscape:window-x="1912"
     inkscape:window-y="50"
     inkscape:window-maximized="1"
     inkscape:current-layer="svg40" />
  <path
     d="m512 256c0 141.386719-114.613281 256-256 256s-256-114.613281-256-256 114.613281-256 256-256 256 114.613281 256 256zm0 0"
     fill="#00617e"
     id="path2" />
  <path
     d="m512 256c0-14.054688-1.148438-27.835938-3.328125-41.277344l-41.726563-41.722656-20.484374 35.183594-111.953126-111.949219-196.664062 236.179687 173.554688 173.558594c17.558593-3.875 34.445312-9.539062 50.445312-16.816406l2.894531-2.894531 1.050781 1.050781c86.445313-41.101562 146.210938-129.222656 146.210938-231.3125zm0 0"
     fill="#034051"
     id="path4" />
  <path
     d="m466.945312 173-68.898437 64.65625 24.800781 18.183594-36.019531 37.988281 17.175781 12.070313-45.503906 65.804687 84.492188-66.433594-18.308594-15.34375 34.238281-36.835937-26.054687-20.429688zm0 0"
     fill="#ffe000"
     id="path6" />
  <path
     d="m384.332031 259.667969c0-10.015625-4.488281-18.980469-11.558593-25 7.070312-6.023438 11.558593-14.984375 11.558593-25 0-18.132813-14.699219-32.832031-32.832031-32.832031s-32.832031 14.699218-32.832031 32.832031c0 10.015625 4.488281 18.976562 11.558593 25-7.070312 6.019531-11.558593 14.984375-11.558593 25 0 9.738281 4.246093 18.484375 10.980469 24.5-6.738282 6.011719-10.980469 14.757812-10.980469 24.5 0 18.132812 14.699219 32.832031 32.832031 32.832031s32.832031-14.699219 32.832031-32.832031c0-9.742188-4.246093-18.488281-10.980469-24.5 6.734376-6.015625 10.980469-14.761719 10.980469-24.5zm0 0"
     fill="#d7d7d7"
     id="path8" />
  <path
     d="m193.332031 259.667969c0-10.015625-4.488281-18.980469-11.558593-25 7.070312-6.023438 11.558593-14.984375 11.558593-25 0-18.132813-14.699219-32.832031-32.832031-32.832031s-32.832031 14.699218-32.832031 32.832031c0 10.015625 4.488281 18.976562 11.558593 25-7.070312 6.019531-11.558593 14.984375-11.558593 25 0 9.738281 4.246093 18.484375 10.980469 24.5-6.738282 6.011719-10.980469 14.757812-10.980469 24.5 0 18.132812 14.699219 32.832031 32.832031 32.832031s32.832031-14.699219 32.832031-32.832031c0-9.742188-4.246093-18.488281-10.980469-24.5 6.734376-6.015625 10.980469-14.761719 10.980469-24.5zm0 0"
     fill="#e6e6e6"
     id="path10" />
  <path
     d="m439.578125 434.394531-32.839844-41.519531-101.933593-37.121094c-9.402344-3.425781-15.65625-12.363281-15.65625-22.371094v-22.078124h-66.296876v22.078124c0 10.007813-6.253906 18.945313-15.65625 22.371094l-101.933593 37.121094-31.484375 42.910156c46.417968 47.046875 110.910156 76.214844 182.222656 76.214844 72.011719 0 137.066406-29.746094 183.578125-77.605469zm0 0"
     fill="#faa68e"
     id="path12" />
  <path
     d="m406.738281 392.875-101.933593-37.121094c-9.402344-3.425781-15.65625-12.363281-15.65625-22.371094v-22.078124h-33.339844v200.691406c.066406 0 .128906.003906.191406.003906 72.011719 0 137.066406-29.746094 183.578125-77.605469zm0 0"
     fill="#e09380"
     id="path14" />
  <path
     d="m198.667969 218.238281c0 15.726563-12.746094 28.472657-28.472657 28.472657-15.722656 0-28.46875-12.746094-28.46875-28.472657 0-15.722656 12.746094-28.46875 28.46875-28.46875 15.726563 0 28.472657 12.746094 28.472657 28.46875zm0 0"
     fill="#ffbeaa"
     id="path16" />
  <path
     d="m370.273438 218.238281c0 15.726563-12.746094 28.472657-28.46875 28.472657-15.726563 0-28.472657-12.746094-28.472657-28.472657 0-15.722656 12.746094-28.46875 28.472657-28.46875 15.722656 0 28.46875 12.746094 28.46875 28.46875zm0 0"
     fill="#faa68e"
     id="path18" />
  <path
     d="m293.910156 324.835938-19.011718 9.765624c-11.863282 6.09375-25.933594 6.09375-37.792969 0l-19.011719-9.765624c-28.175781-14.476563-45.890625-43.488282-45.890625-75.164063v-74.109375c0-46.28125 37.515625-83.800781 83.800781-83.800781 46.277344 0 83.796875 37.519531 83.796875 83.800781v74.109375c0 31.675781-17.714843 60.691406-45.890625 75.164063zm0 0"
     id="path20"
     fill="#ffbeaa" />
  <path
     d="m256 91.761719c-.0625 0-.128906.003906-.191406.003906v247.398437c6.546875.03125 13.097656-1.484374 19.085937-4.5625l19.015625-9.765624c28.175782-14.476563 45.890625-43.488282 45.890625-75.164063v-74.109375c0-46.28125-37.519531-83.800781-83.800781-83.800781zm0 0"
     fill="#faa68e"
     id="path22" />
  <path
     d="m285.003906 423h-58.007812c-31.753906 0-57.496094-25.742188-57.496094-57.496094v-93.914062c0-11.921875 9.664062-21.589844 21.589844-21.589844h129.816406c11.925781 0 21.59375 9.667969 21.59375 21.589844v93.914062c0 31.753906-25.742188 57.496094-57.496094 57.496094zm0 0"
     fill="#fff"
     id="path24" />
  <path
     d="m320.910156 250h-65.101562v173h29.195312c31.753906 0 57.496094-25.742188 57.496094-57.496094v-93.914062c0-11.921875-9.667969-21.589844-21.589844-21.589844zm0 0"
     fill="#f2f6fc"
     id="path26" />
  <path
     d="m227.667969 282.332031h56.667969v14.667969h-56.667969zm0 0"
     fill="#ffbeaa"
     id="path28" />
  <path
     d="m255.808594 282.332031h28.527344v14.667969h-28.527344zm0 0"
     fill="#faa68e"
     id="path30" />
  <path
     d="m345.714844 126.722656c.289062-1.761718.449218-3.566406.449218-5.40625 0-18.132812-14.699218-32.835937-32.832031-32.835937-7.519531 0-14.445312 2.535156-19.980469 6.785156-6.707031-8.671875-17.207031-14.265625-29.019531-14.265625-4.253906 0-8.335937.734375-12.136719 2.066406-5.792968-3.832031-12.730468-6.066406-20.195312-6.066406-15.6875 0-29.070312 9.855469-34.304688 23.714844-2.789062-.679688-5.699218-1.046875-8.695312-1.046875-20.25 0-36.667969 16.414062-36.667969 36.667969 0 2.769531.320313 5.46875.902344 8.0625-8.371094 6.722656-13.734375 17.03125-13.734375 28.601562 0 20.25 16.414062 36.667969 36.667969 36.667969 20.25 0 36.667969-16.414063 36.667969-36.667969 0-.195312-.015626-.390625-.015626-.589844 2.113282.382813 4.289063.589844 6.515626.589844 14.519531 0 27.066406-8.441406 33.003906-20.683594 3.761718 1.300782 7.792968 2.019532 11.996094 2.019532 9.851562 0 18.792968-3.898438 25.378906-10.222657 5.121094 5.300781 12.003906 8.878907 19.707031 9.792969-.292969 1.761719-.453125 3.566406-.453125 5.40625 0 18.132812 14.703125 32.835938 32.835938 32.835938 18.132812 0 32.832031-14.703126 32.832031-32.835938 0-16.808594-12.632813-30.65625-28.921875-32.589844zm0 0"
     fill="#fff"
     id="path32" />
  <path
     d="m345.714844 126.722656c.289062-1.761718.449218-3.566406.449218-5.40625 0-18.132812-14.699218-32.835937-32.832031-32.835937-7.519531 0-14.445312 2.535156-19.980469 6.785156-6.707031-8.671875-17.207031-14.265625-29.019531-14.265625-2.9375 0-5.785156.355469-8.523437 1.011719v71.308593c2.738281.65625 5.585937 1.015626 8.523437 1.015626 9.855469 0 18.796875-3.898438 25.382813-10.222657 5.117187 5.300781 12 8.878907 19.707031 9.792969-.292969 1.761719-.453125 3.566406-.453125 5.40625 0 18.132812 14.699219 32.835938 32.832031 32.835938 18.132813 0 32.835938-14.703126 32.835938-32.835938 0-16.808594-12.632813-30.65625-28.921875-32.589844zm0 0"
     fill="#f2f6fc"
     id="path34" />
  <path
     d="m256 512c43.710938 0 84.847656-10.976562 120.84375-30.292969l13.671875-94.738281-22.074219-8.039062c-7.953125 18.433593-47.878906 80.292968-230.601562 104.210937 35.351562 18.429687 75.535156 28.859375 118.160156 28.859375zm0 0"
     fill="#e6e6e6"
     id="path36" />
  <path
     d="m368.441406 378.929688c-5.828125 13.507812-28.835937 50.34375-112.632812 78.472656v54.597656h.191406c43.710938 0 84.847656-10.976562 120.84375-30.292969l13.671875-94.738281zm0 0"
     fill="#d7d7d7"
     id="path38" />
  <ellipse
     style="fill:#ffffff;stroke-width:0.74999994"
     id="path252"
     cx="706.94348"
     cy="148.76921"
     rx="7.9636416"
     ry="6.7193227" />
  <ellipse
     style="fill:#00617e;fill-opacity:1;stroke-width:1.06966531"
     id="path1069"
     cx="707.48315"
     cy="148.54614"
     rx="3.0230076"
     ry="3.1599255" />
  <ellipse
     style="fill:#ffffff;stroke-width:0.74999994"
     id="path252-2"
     cx="733.89508"
     cy="148.10591"
     rx="7.9636416"
     ry="6.7193227" />
  <ellipse
     style="fill:#00617e;fill-opacity:1;stroke-width:1.06966531"
     id="path1069-2"
     cx="733.75964"
     cy="147.38039"
     rx="3.0230076"
     ry="3.1599255" />
  <path
     style="fill:#f2f2f2;fill-opacity:1;stroke-width:0.74999994"
     id="path1142"
     d="m 700.70729,142.63315 c -0.0565,-0.65574 0.0396,-1.30777 0.21064,-1.93941 0.14534,-0.38662 0.38652,-0.7304 0.63901,-1.05437 1.70493,-1.96816 2.06257,-2.51921 3.87517,-3.01516 0.48043,-0.10488 0.94906,-0.29424 1.4424,-0.31524 0.43325,-0.017 0.85222,-0.0578 1.28454,-0.0303 0.44138,0.002 0.88549,0.0805 1.29311,0.25115 0.3692,0.0884 0.71253,0.24123 1.06588,0.37542 0.32449,0.15562 0.62161,0.36045 0.94265,0.52154 0.17331,0.17292 0.42074,0.18369 0.62288,0.29895 0.10857,0.0618 0.20821,0.13889 0.31651,0.20097 0.26665,0.23811 0.5847,0.36522 0.89968,0.5154 0.33759,0.0992 0.61886,0.32269 0.96115,0.40564 0.37078,0.0791 0.72176,0.12245 1.1022,0.0828 0.43863,-0.0884 0.91196,-0.12189 1.31004,-0.33625 0.0605,-0.0329 0.12708,-0.0558 0.18165,-0.0984 0.0989,-0.0751 0.16877,-0.18397 0.26671,-0.2605 0.1629,-0.12728 0.34594,-0.20948 0.53323,-0.29299 1.17979,-0.8146 2.73178,-2.48729 -1.74502,1.83773 0.28904,-0.22678 0.38782,-0.57223 0.58593,-0.86315 0.25078,-0.30586 0.35465,-0.62295 0.42607,-1.00568 0.0519,-0.29492 0.0181,-0.15024 0.10103,-0.43441 0,0 2.93704,-2.24943 2.93704,-2.24943 v 0 c -0.14266,0.21657 -0.0856,0.0989 -0.16775,0.35467 -0.0391,0.38574 -0.0433,0.82644 -0.32847,1.11866 -0.23978,0.44578 0.0759,-0.10913 -0.20083,0.28262 -0.14341,0.20296 -0.11016,0.49085 -0.34258,0.63983 -1.09653,1.07161 -2.15302,2.45305 -3.56103,3.21951 -0.33985,0.20891 -0.62128,0.50573 -1.0112,0.6258 -0.45787,0.12841 -0.92622,0.23018 -1.40199,0.26051 -0.41077,0.006 -0.8078,-0.0641 -1.20488,-0.16781 -0.33975,-0.12671 -0.65258,-0.31405 -0.99477,-0.43643 -0.33247,-0.14371 -0.63829,-0.32337 -0.92795,-0.54232 -0.3021,-0.18227 -0.63077,-0.29761 -0.92775,-0.48881 -0.30197,-0.16894 -0.59733,-0.35005 -0.91271,-0.49396 -0.3463,-0.14428 -0.70241,-0.2537 -1.05781,-0.37245 -0.39187,-0.12557 -0.79687,-0.17376 -1.20816,-0.17348 -0.41329,-0.0113 -0.82535,0.0462 -1.23798,0.0658 -0.46993,0.0904 -0.92984,0.22819 -1.391,0.35464 -1.49101,0.47041 -2.85825,2.04029 1.49466,-1.97575 -0.32607,0.24293 -0.49979,0.61144 -0.74942,0.92551 -0.24596,0.5626 -0.33281,1.19481 -0.31604,1.80579 0,0 -2.80496,2.40293 -2.80496,2.40293 z"
     inkscape:connector-curvature="0"
     inkscape:transform-center-x="0.17558721" />
  <path
     style="fill:#f2f2f2;fill-opacity:1;stroke-width:0.69467747"
     id="path1142-6"
     d="m 726.68571,141.23445 c -0.0598,-0.56364 0.033,-1.12139 0.20089,-1.66028 0.14341,-0.32913 0.38283,-0.6198 0.63369,-0.89323 1.695,-1.65821 2.04987,-2.12468 3.85995,-2.51779 0.47989,-0.0814 0.94757,-0.23555 1.44079,-0.24463 0.43315,-0.008 0.8519,-0.034 1.28435,-0.006 0.44138,0.008 0.88587,0.085 1.29442,0.23839 0.36979,0.0819 0.71377,0.2194 1.06775,0.34118 0.32539,0.13946 0.62343,0.32028 0.94528,0.46437 0.17413,0.15137 0.42164,0.16526 0.62434,0.26787 0.10871,0.0553 0.20891,0.12274 0.31755,0.1783 0.26787,0.2092 0.58655,0.32378 0.90227,0.45831 0.33826,0.0904 0.62054,0.28788 0.96316,0.36536 0.37117,0.0745 0.72238,0.11792 1.10254,0.0915 0.4382,-0.068 0.91133,-0.0881 1.30835,-0.26504 0.0604,-0.0283 0.12671,-0.0459 0.18142,-0.0813 0.0984,-0.0629 0.16781,-0.15505 0.26533,-0.21855 0.16242,-0.10658 0.34491,-0.17376 0.53175,-0.2418 1.17572,-0.67779 2.71921,-2.0853 -1.73574,1.54559 0.28797,-0.18935 0.38486,-0.48407 0.58158,-0.73009 0.24917,-0.25795 0.35141,-0.52818 0.42097,-0.85527 0.0502,-0.25228 0.017,-0.12869 0.0995,-0.3708 0,0 2.92564,-1.87755 2.92564,-1.87755 v 0 c -0.14145,0.18283 -0.0848,0.0833 -0.16639,0.30129 -0.0368,0.33035 -0.038,0.70844 -0.32281,0.954 -0.23783,0.37817 0.0757,-0.0924 -0.19956,0.23868 -0.1423,0.17178 -0.10828,0.41896 -0.33925,0.54283 -1.09117,0.89983 -2.1407,2.06626 -3.54481,2.6987 -0.33883,0.1732 -0.61878,0.42282 -1.00806,0.51891 -0.45723,0.10176 -0.92506,0.18057 -1.40071,0.19843 -0.41076,-0.002 -0.80809,-0.0695 -1.20574,-0.16526 -0.34038,-0.11481 -0.65413,-0.2812 -0.99692,-0.39223 -0.33315,-0.12926 -0.63992,-0.28883 -0.93067,-0.48195 -0.30302,-0.16186 -0.63227,-0.26674 -0.9302,-0.43603 -0.30281,-0.1508 -0.59911,-0.3109 -0.91518,-0.4401 -0.34702,-0.13011 -0.70366,-0.23046 -1.05965,-0.33857 -0.39253,-0.11481 -0.79784,-0.16328 -1.20899,-0.17065 -0.41325,-0.0198 -0.82512,0.0255 -1.23763,0.0343 -0.46945,0.0692 -0.92868,0.17887 -1.38919,0.2795 -1.48863,0.37695 -2.84795,1.69948 1.4847,-1.66853 -0.32484,0.20267 -0.49671,0.51568 -0.74475,0.78072 -0.24313,0.47831 -0.3268,1.01922 -0.30695,1.54372 0,0 -2.79284,2.01157 -2.79284,2.01157 z"
     inkscape:connector-curvature="0" />
  <ellipse
     style="fill:#ffffff;stroke-width:1.7656734"
     id="path252-3"
     cx="225.15218"
     cy="211.52246"
     rx="18.418949"
     ry="16.10166" />
  <ellipse
     style="fill:#00617e;fill-opacity:1;stroke-width:2.51823974"
     id="path1069-4"
     cx="226.40048"
     cy="210.98796"
     rx="6.9918547"
     ry="7.5721984" />
  <ellipse
     style="fill:#ffffff;stroke-width:1.7656734"
     id="path252-2-9"
     cx="287.48813"
     cy="209.93301"
     rx="18.418949"
     ry="16.10166" />
  <ellipse
     style="fill:#00617e;fill-opacity:1;stroke-width:2.51823974"
     id="path1069-2-4"
     cx="287.1748"
     cy="208.1944"
     rx="6.9918547"
     ry="7.5721984" />
  <path
     style="fill:#f2f2f2;fill-opacity:1;stroke-width:1.7656734"
     id="path1142-9"
     d="m 210.72867,196.81849 c -0.13068,-1.57136 0.0916,-3.13383 0.48718,-4.64745 0.33614,-0.92646 0.89398,-1.75029 1.47796,-2.52663 3.94327,-4.71632 4.77048,-6.03681 8.96278,-7.22527 1.11118,-0.25133 2.19506,-0.70509 3.3361,-0.75542 1.00208,-0.0407 1.9711,-0.1385 2.97101,-0.0726 1.02083,0.005 2.04801,0.19291 2.99081,0.60184 0.85389,0.21184 1.64799,0.57804 2.46523,0.89963 0.7505,0.37291 1.4377,0.86375 2.18023,1.24978 0.40085,0.41437 0.97315,0.44018 1.44067,0.71635 0.25111,0.1481 0.48154,0.33285 0.73203,0.48162 0.61675,0.57058 1.35234,0.87518 2.08087,1.23506 0.78079,0.23771 1.43133,0.77327 2.22303,0.97202 0.85755,0.18955 1.66934,0.29345 2.54926,0.19842 1.01449,-0.21184 2.10923,-0.29209 3.02996,-0.80577 0.13993,-0.0788 0.2939,-0.13371 0.42011,-0.2358 0.22875,-0.17996 0.39037,-0.44085 0.61687,-0.62426 0.37679,-0.30498 0.80012,-0.50198 1.2333,-0.7021 2.72871,-1.95202 6.3183,-5.96032 -4.036,4.40379 0.66849,-0.54341 0.89698,-1.37125 1.35516,-2.06838 0.58003,-0.73292 0.82029,-1.49277 0.98545,-2.40991 0.12004,-0.70673 0.0419,-0.36003 0.23367,-1.04099 0,0 6.79305,-5.39036 6.79305,-5.39036 v 0 c -0.32998,0.51895 -0.19799,0.237 -0.38801,0.84991 -0.0904,0.92435 -0.10015,1.98041 -0.75969,2.68067 -0.55458,1.06823 0.17555,-0.26151 -0.46452,0.67724 -0.33167,0.48636 -0.25476,1.17622 -0.79232,1.53324 -2.53617,2.56793 -4.97968,5.8783 -8.23626,7.71499 -0.78604,0.50061 -1.43693,1.21189 -2.33876,1.49961 -1.059,0.30772 -2.14224,0.55159 -3.24266,0.62427 -0.95004,0.0144 -1.86835,-0.1536 -2.78672,-0.40215 -0.78583,-0.30361 -1.50934,-0.75257 -2.30079,-1.0458 -0.76896,-0.34438 -1.47628,-0.7749 -2.14623,-1.29958 -0.69875,-0.43677 -1.45892,-0.71317 -2.1458,-1.17134 -0.69842,-0.40484 -1.38155,-0.83884 -2.11097,-1.18369 -0.80095,-0.34577 -1.62459,-0.60795 -2.44659,-0.89251 -0.90637,-0.30091 -1.84306,-0.41639 -2.79435,-0.41571 -0.95589,-0.0271 -1.90893,0.11071 -2.86327,0.15767 -1.0869,0.21663 -2.15064,0.5468 -3.21722,0.84984 -3.44855,1.12725 -6.61081,4.88919 3.45697,-4.73454 -0.75418,0.58214 -1.15596,1.46519 -1.73332,2.21782 -0.56888,1.34815 -0.76975,2.86315 -0.73096,4.32723 0,0 -6.48756,5.7582 -6.48756,5.7582 z"
     inkscape:connector-curvature="0"
     inkscape:transform-center-x="0.40610937"
     inkscape:transform-center-y="1.1085529e-06" />
  <path
     style="fill:#f2f2f2;fill-opacity:1;stroke-width:1.63543153"
     id="path1142-6-5"
     d="m 270.81362,193.46676 c -0.13831,-1.35066 0.0763,-2.68721 0.46466,-3.97857 0.33166,-0.7887 0.88544,-1.48524 1.46565,-2.14046 3.92033,-3.97361 4.74108,-5.09142 8.9276,-6.03344 1.1099,-0.19482 2.19159,-0.56448 3.33237,-0.58621 1.0018,-0.0216 1.97032,-0.0815 2.97055,-0.0144 1.02086,0.0216 2.04891,0.20369 2.99384,0.57128 0.85526,0.19626 1.65084,0.52576 2.46958,0.81758 0.75258,0.33419 1.44192,0.7675 2.18632,1.11278 0.40274,0.36273 0.97518,0.39602 1.444,0.6419 0.25143,0.13252 0.4832,0.29413 0.73447,0.42727 0.61956,0.50131 1.35662,0.77586 2.08685,1.09826 0.78235,0.21662 1.43521,0.68985 2.22767,0.87549 0.85845,0.17853 1.67078,0.28258 2.55002,0.21951 1.01353,-0.16295 2.10782,-0.21136 3.02608,-0.63512 0.1397,-0.0678 0.29307,-0.11 0.4196,-0.19507 0.22759,-0.15072 0.38813,-0.37157 0.61366,-0.52371 0.37566,-0.25543 0.79776,-0.41641 1.22987,-0.57943 2.71932,-1.62421 6.28923,-4.99708 -4.01456,3.70373 0.66604,-0.45374 0.89014,-1.15999 1.34515,-1.74953 0.57628,-0.61813 0.81277,-1.26569 0.97365,-2.0495 0.11611,-0.60455 0.0393,-0.30839 0.23014,-0.88856 0,0 6.76665,-4.49921 6.76665,-4.49921 v 0 c -0.32716,0.43812 -0.19613,0.19961 -0.38486,0.72198 -0.0851,0.79163 -0.0879,1.69763 -0.74662,2.28609 -0.55005,0.90622 0.17508,-0.22142 -0.46156,0.57196 -0.3291,0.41164 -0.25044,1.00396 -0.78465,1.30079 -2.52372,2.15629 -4.95116,4.95143 -8.19872,6.46696 -0.78365,0.41502 -1.43114,1.01319 -2.33152,1.24347 -1.0575,0.24385 -2.13953,0.43268 -3.23967,0.47548 -0.95002,-0.005 -1.86902,-0.1663 -2.78871,-0.39601 -0.78726,-0.2751 -1.51293,-0.67383 -2.30578,-0.93991 -0.77054,-0.30975 -1.48004,-0.69211 -2.15253,-1.15489 -0.70085,-0.38787 -1.46234,-0.63919 -2.15144,-1.04487 -0.70034,-0.36136 -1.38565,-0.74501 -2.11668,-1.05464 -0.80262,-0.31179 -1.62751,-0.55223 -2.45087,-0.81132 -0.90785,-0.2751 -1.84531,-0.39125 -2.79622,-0.40891 -0.9558,-0.0474 -1.90843,0.0611 -2.86249,0.0822 -1.08579,0.16583 -2.14795,0.42861 -3.21306,0.66975 -3.44302,0.90332 -6.58696,4.07253 3.43394,-3.99833 -0.75132,0.48568 -1.14883,1.23573 -1.72252,1.87085 -0.56233,1.14621 -0.75585,2.4424 -0.70994,3.69925 0,0 -6.45948,4.82039 -6.45948,4.82039 z"
     inkscape:connector-curvature="0" />
</svg>
