<?xml version="1.0" encoding="UTF-8" standalone="no"?>
<!-- Created with Inkscape (http://www.inkscape.org/) -->

<svg
   xmlns:dc="http://purl.org/dc/elements/1.1/"
   xmlns:cc="http://creativecommons.org/ns#"
   xmlns:rdf="http://www.w3.org/1999/02/22-rdf-syntax-ns#"
   xmlns:svg="http://www.w3.org/2000/svg"
   xmlns="http://www.w3.org/2000/svg"
   xmlns:sodipodi="http://sodipodi.sourceforge.net/DTD/sodipodi-0.dtd"
   xmlns:inkscape="http://www.inkscape.org/namespaces/inkscape"
   width="680.07874"
   height="680"
   version="1.1"
   viewBox="0 0 179.93523 179.9144"
   id="svg7545"
   sodipodi:docname="lvl_2_HE.svg"
   inkscape:version="0.92.4 (5da689c313, 2019-01-14)"
   inkscape:export-filename="/media/goofy/1ffc4969-9bf9-4884-8765-70536da6acb2/Faks/III_godina/Vestacka Inteligencija/Santorini project/Santorini_front-end/public/images/lvl_2_HE.png"
   inkscape:export-xdpi="96"
   inkscape:export-ydpi="96">
  <defs
     id="defs7549" />
  <sodipodi:namedview
     pagecolor="#ffffff"
     bordercolor="#666666"
     borderopacity="1"
     objecttolerance="10"
     gridtolerance="10"
     guidetolerance="10"
     inkscape:pageopacity="0"
     inkscape:pageshadow="2"
     inkscape:window-width="1920"
     inkscape:window-height="1000"
     id="namedview7547"
     showgrid="false"
     inkscape:zoom="0.96"
     inkscape:cx="400.78131"
     inkscape:cy="340"
     inkscape:window-x="0"
     inkscape:window-y="27"
     inkscape:window-maximized="1"
     inkscape:current-layer="svg7545"
     units="px" />
  <metadata
     id="metadata7497">
    <rdf:RDF>
      <cc:Work
         rdf:about="">
        <dc:format>image/svg+xml</dc:format>
        <dc:type
           rdf:resource="http://purl.org/dc/dcmitype/StillImage" />
        <dc:title />
      </cc:Work>
    </rdf:RDF>
  </metadata>
  <g
     id="g7543"
     transform="matrix(1.7529398,0,0,1.0185145,-77.986165,-122.07918)">
    <g
       id="g7513"
       style="opacity:0.86799999;fill:#8787be;fill-rule:evenodd">
      <path
         d="m 44.819,231.81 v 35.523 l 48.635,-14.861 v -31.254 z"
         points="44.81876,267.3332 93.453539,252.47238 93.453539,221.21789 44.81876,231.81005 "
         id="path7499"
         inkscape:connector-curvature="0"
         style="fill:#353564" />
      <path
         d="M 44.819,267.33 93.283,296.567 147.2,273.426 93.454,252.468 Z"
         points="93.282833,296.57045 147.19945,273.4299 93.453539,252.47238 44.81876,267.3332 "
         id="path7501"
         inkscape:connector-curvature="0"
         style="fill:#afafde" />
      <path
         d="m 93.454,221.22 53.746,12.85 v 39.362 L 93.454,252.474 Z"
         points="147.19945,234.06773 147.19945,273.4299 93.453539,252.47238 93.453539,221.21789 "
         id="path7503"
         inkscape:connector-curvature="0"
         style="fill:#e9e9ff" />
      <g
         id="g7511">
        <path
           d="M 44.819,231.81 93.283,250.189 147.2,234.068 93.454,221.218 Z"
           points="93.282833,250.18901 147.19945,234.06773 93.453539,221.21789 44.81876,231.81005 "
           id="path7505"
           inkscape:connector-curvature="0"
           style="fill:#6d9f4d" />
        <path
           d="m 93.283,250.19 v 46.381 L 147.2,273.43 v -39.362 z"
           points="93.282833,296.57045 147.19945,273.4299 147.19945,234.06773 93.282833,250.18901 "
           id="path7507"
           inkscape:connector-curvature="0"
           style="fill:#d7ffec" />
        <path
           d="m 44.819,231.81 48.464,18.379 V 296.57 L 44.819,267.333 Z"
           points="93.282833,250.18901 93.282833,296.57045 44.81876,267.3332 44.81876,231.81005 "
           id="path7509"
           inkscape:connector-curvature="0"
           style="fill:#97bf86" />
      </g>
    </g>
    <g
       id="g7527"
       style="opacity:0.86799999;fill-rule:evenodd">
      <path
         d="m 93.454,221.22 53.928,-11.745 z"
         points="93.453539,221.21789 147.38203,209.47283 147.38203,209.47283 93.453539,221.21789 "
         id="path7515"
         inkscape:connector-curvature="0"
         style="fill:#353564" />
      <path
         d="m 93.454,221.22 53.928,-11.745 z"
         points="93.453539,221.21789 147.38203,209.47283 147.38203,209.47283 93.453539,221.21789 "
         id="path7517"
         inkscape:connector-curvature="0"
         style="fill:#afafde" />
      <path
         d="m 93.454,221.22 53.928,-11.745 z"
         points="93.453539,221.21789 147.38203,209.47283 147.38203,209.47283 93.453539,221.21789 "
         id="path7519"
         inkscape:connector-curvature="0"
         style="fill:#d7d7ff" />
      <path
         d="M 147.38,209.47 Z"
         points="147.38203,209.47283 147.38203,209.47283 147.38203,209.47283 147.38203,209.47283 "
         id="path7521"
         inkscape:connector-curvature="0"
         style="fill:#e9e9ff" />
      <path
         d="m 93.454,221.22 53.928,-11.745 z"
         points="93.453539,221.21789 147.38203,209.47283 147.38203,209.47283 93.453539,221.21789 "
         id="path7523"
         inkscape:connector-curvature="0"
         style="fill:#4d4d9f" />
      <path
         d="M 93.454,221.22 Z"
         points="93.453539,221.21789 93.453539,221.21789 93.453539,221.21789 93.453539,221.21789 "
         id="path7525"
         inkscape:connector-curvature="0"
         style="fill:#8686bf" />
    </g>
    <g
       id="g7535"
       style="fill-rule:evenodd">
      <path
         d="m 52.185,196.14 v 37.498 l 42.726,-9.6741 v -33.466 z"
         id="path7529"
         inkscape:connector-curvature="0"
         style="fill:#353564" />
      <path
         d="m 52.185,233.64 41.098,15.346 46.555,-13.763 -44.927,-11.257 z"
         id="path7531"
         inkscape:connector-curvature="0"
         style="fill:#afafde" />
      <path
         d="m 94.911,190.5 44.927,4.0512 v 40.672 l -44.927,-11.257 z"
         id="path7533"
         inkscape:connector-curvature="0"
         style="fill:#e9e9ff" />
    </g>
    <path
       d="m 52.185,196.14 41.098,6.0578 46.555,-7.6488 -44.927,-4.0512 z"
       id="path7537"
       inkscape:connector-curvature="0"
       style="fill:#9d9f4d" />
    <path
       d="m 93.283,202.2 v 46.786 l 46.555,-13.763 v -40.672 z"
       id="path7539"
       inkscape:connector-curvature="0"
       style="fill:#faffd7" />
    <path
       d="m 52.185,196.14 41.098,6.0578 v 46.786 l -41.098,-15.346 z"
       id="path7541"
       inkscape:connector-curvature="0"
       style="fill:#bfbc86" />
  </g>
  <path
     d="m 122.04955,45.001993 c 0,19.625107 -16.35132,35.533933 -36.522282,35.533933 -20.170963,0 -36.522284,-15.908826 -36.522284,-35.533933 0,-19.625105 16.351321,-35.5339531 36.522284,-35.5339531 20.170962,0 36.522282,15.9088481 36.522282,35.5339531 z m 0,0"
     id="path2"
     inkscape:connector-curvature="0"
     style="fill:#0adebf;stroke-width:0.14072159" />
  <path
     d="M 97.219132,23.585922 70.096025,42.072323 104.30167,75.467771 c 9.85059,-5.774924 16.68179,-15.955862 17.63308,-27.752187 z m 0,0"
     id="path4"
     inkscape:connector-curvature="0"
     style="fill:#00ad90;stroke-width:0.14096548" />
  <path
     d="m 111.71748,69.726584 -4.68511,-5.7831 -14.542364,-5.170439 c -1.341392,-0.477172 -2.233617,-1.722029 -2.233617,-3.115982 v -3.075184 h -9.458247 v 3.075184 c 0,1.393953 -0.892217,2.63881 -2.233606,3.115982 l -14.542372,5.170439 -4.491725,5.976792 c 6.62223,6.552965 15.823016,10.61565 25.996829,10.61565 10.273564,0 19.554602,-4.14321 26.190212,-10.809342 z m 0,0"
     id="path6"
     inkscape:connector-curvature="0"
     style="fill:#faa68e;stroke-width:0.14096548" />
  <path
     d="M 107.03237,63.943484 92.490006,58.773045 c -1.341392,-0.477172 -2.233617,-1.722029 -2.233617,-3.115982 v -3.075184 h -4.756431 v 27.953502 c 0.0089,0 0.01841,7.33e-4 0.02732,7.33e-4 10.273554,0 19.554602,-4.143228 26.190762,-10.809361 z m 0,0"
     id="path8"
     inkscape:connector-curvature="0"
     style="fill:#e09380;stroke-width:0.14096548" />
  <path
     d="m 85.527268,80.535926 c 6.236026,0 12.104817,-1.528869 17.240202,-4.21938 l 1.95051,-13.195718 -3.14924,-1.119724 c -1.13463,2.567543 -6.830651,11.183679 -32.898813,14.515115 5.043438,2.566997 10.776236,4.019707 16.857341,4.019707 z m 0,0"
     id="path10"
     inkscape:connector-curvature="0"
     style="fill:#00617e;stroke-width:0.14096548" />
  <path
     d="m 101.56874,62.001104 c -0.83147,1.881451 -4.11388,7.012178 -16.068782,10.930138 v 7.604684 h 0.02732 c 6.236026,0 12.104815,-1.528869 17.240202,-4.21938 l 1.95051,-13.195718 z m 0,0"
     id="path12"
     inkscape:connector-curvature="0"
     style="fill:#034051;stroke-width:0.14096548" />
  <path
     d="m 77.347981,39.619045 c 0,2.19049 -1.818422,3.965839 -4.062057,3.965839 -2.243075,0 -4.0615,-1.775349 -4.0615,-3.965839 0,-2.189949 1.818425,-3.965297 4.0615,-3.965297 2.243635,0 4.062057,1.775348 4.062057,3.965297 z m 0,0"
     id="path14"
     inkscape:connector-curvature="0"
     style="fill:#ffbeaa;stroke-width:0.14096548" />
  <path
     d="m 101.8301,39.619045 c 0,2.19049 -1.81842,3.965839 -4.06148,3.965839 -2.243636,0 -4.06206,-1.775349 -4.06206,-3.965839 0,-2.189949 1.818424,-3.965297 4.06206,-3.965297 2.24306,0 4.06148,1.775348 4.06148,3.965297 z m 0,0"
     id="path16"
     inkscape:connector-curvature="0"
     style="fill:#faa68e;stroke-width:0.14096548" />
  <path
     d="m 90.460446,55.145866 -2.712302,1.360212 c -1.692478,0.848781 -3.699822,0.848781 -5.39174,0 l -2.71231,-1.360212 C 75.624389,53.12948 73.097097,49.088562 73.097097,44.676563 V 34.35416 c 0,-6.44633 5.352174,-11.672267 11.955452,-11.672267 6.602177,0 11.954907,5.225937 11.954907,11.672267 v 10.322403 c 0,4.411999 -2.527289,8.453469 -6.54701,10.469303 z m 0,0"
     id="path18"
     inkscape:connector-curvature="0"
     style="fill:#ffbeaa;stroke-width:0.14096548" />
  <path
     d="m 85.527268,22.002621 c -0.0089,0 -0.0184,4.89e-4 -0.02732,4.89e-4 v 34.459123 c 0.934014,0.0049 1.868583,-0.206762 2.72346,-0.635495 l 2.712301,-1.360219 c 4.019718,-2.016381 6.547008,-6.057308 6.547008,-10.469297 V 33.674821 c 0,-6.446333 -5.352727,-11.67228 -11.955456,-11.67228 z m 0,0"
     id="path20"
     inkscape:connector-curvature="0"
     style="fill:#faa68e;stroke-width:0.14096548" />
  <path
     d="m 75.540705,42.683336 v -7.029588 h -2.353974 v 18.905883 c 0,4.422882 3.672512,8.008411 8.202691,8.008411 h 8.275691 c 4.530187,0 8.202692,-3.585529 8.202692,-8.008411 V 35.653748 H 95.51383 v 7.029588 c 0,1.568597 -1.302372,2.840123 -2.909026,2.840123 H 78.44918 c -1.606097,0 -2.908475,-1.271526 -2.908475,-2.840123 z m 0,0"
     id="path22"
     inkscape:connector-curvature="0"
     style="fill:#00617e;stroke-width:0.14096548" />
  <path
     d="m 95.51383,35.653748 v 7.029588 c 0,1.568597 -1.302372,2.840123 -2.909026,2.840123 h -7.104846 v 17.044583 h 4.165155 c 4.530187,0 8.202692,-3.585529 8.202692,-8.008411 V 35.653748 Z m 0,0"
     id="path24"
     inkscape:connector-curvature="0"
     style="fill:#034051;stroke-width:0.14096548" />
  <path
     d="m 81.485274,48.546411 h 8.084546 v 2.043034 h -8.084546 z m 0,0"
     id="path26"
     inkscape:connector-curvature="0"
     style="fill:#ffbeaa;stroke-width:0.14096548" />
  <path
     d="m 85.499958,48.546411 h 4.069862 v 2.043034 h -4.069862 z m 0,0"
     id="path28"
     inkscape:connector-curvature="0"
     style="fill:#faa68e;stroke-width:0.14096548" />
  <path
     d="m 98.821403,27.679621 c 0.0412,-0.256264 0.06408,-0.519059 0.06408,-0.787292 0,-2.639898 -2.097063,-4.779801 -4.684,-4.779801 -1.072761,0 -2.060831,0.36889 -2.850502,0.988063 -0.95631,-1.262834 -2.454849,-2.077318 -4.139525,-2.077318 -0.607443,0 -1.189805,0.10664 -1.732044,0.300881 -0.826457,-0.557688 -1.816194,-0.883046 -2.881166,-0.883046 -2.238064,0 -4.147321,1.434744 -4.894086,3.452212 -0.397903,-0.09902 -0.81308,-0.152334 -1.24052,-0.152334 -2.888968,0 -5.231242,2.390161 -5.231242,5.33801 0,0.403729 0.04569,0.796543 0.128732,1.174148 -1.194262,0.97827 -1.959415,2.479405 -1.959415,4.163896 0,2.948394 2.341713,5.338021 5.231242,5.338021 2.888972,0 5.231245,-2.389627 5.231245,-5.338021 0,-0.02831 -0.0022,-0.05714 -0.0022,-0.08546 0.301494,0.05495 0.611903,0.08546 0.929554,0.08546 2.071431,0 3.861433,-1.22855 4.708506,-3.010976 0.536666,0.18934 1.111783,0.293265 1.711425,0.293265 1.405477,0 2.681103,-0.566937 3.620692,-1.487538 0.730597,0.77151 1.712534,1.292739 2.811508,1.426044 -0.04185,0.255728 -0.06469,0.518516 -0.06469,0.78676 0,2.639896 2.097618,4.780342 4.684534,4.780342 2.586919,0 4.683989,-2.140446 4.683989,-4.780342 0,-2.446754 -1.80283,-4.463143 -4.126142,-4.744974 z m 0,0"
     id="path30"
     inkscape:connector-curvature="0"
     style="fill:#00617e;stroke-width:0.14096548" />
  <path
     d="m 98.326451,27.533264 c 0.0412,-0.256271 0.06408,-0.519059 0.06408,-0.787292 0,-2.639902 -2.09707,-4.779799 -4.683995,-4.779799 -1.072767,0 -2.060837,0.3689 -2.850518,0.988063 -0.956299,-1.262834 -2.454842,-2.077318 -4.139517,-2.077318 -0.419081,0 -0.825898,0.05228 -1.216559,0.147443 v 10.381703 c 0.390661,0.09575 0.797478,0.147443 1.216559,0.147443 1.405475,0 2.6811,-0.566926 3.62068,-1.48807 0.730606,0.772064 1.712554,1.292748 2.811521,1.426042 -0.04185,0.256274 -0.06469,0.519069 -0.06469,0.787304 0,2.639896 2.097613,4.779787 4.684537,4.779787 2.586921,0 4.684001,-2.139891 4.684001,-4.779787 0,-2.4473 -1.80283,-4.463687 -4.126162,-4.745519 z m 0,0"
     id="path32"
     inkscape:connector-curvature="0"
     style="fill:#034051;stroke-width:0.14096548" />
  <ellipse
     style="opacity:0.86799999;fill:#a94343;fill-opacity:1;stroke-width:0.2108735"
     id="path7182"
     cx="81.433235"
     cy="39.666313"
     rx="2.2996871"
     ry="2.2857349" />
  <ellipse
     style="opacity:0.86799999;fill:#ffffff;fill-opacity:1;stroke-width:0.25076577"
     id="path7198"
     cx="81.465294"
     cy="39.859467"
     rx="1.2804619"
     ry="1.4356523" />
  <ellipse
     style="opacity:0.86799999;fill:#000000;fill-opacity:1;stroke-width:0.46310657"
     id="path7200"
     cx="81.427315"
     cy="39.971283"
     rx="0.85567093"
     ry="0.88936365" />
  <ellipse
     style="opacity:0.86799999;fill:#a94343;fill-opacity:1;stroke-width:0.21692029"
     id="path7182-0"
     cx="89.380081"
     cy="39.543919"
     rx="2.4334638"
     ry="2.2857349" />
  <ellipse
     style="opacity:0.86799999;fill:#ffffff;fill-opacity:1;stroke-width:0.25076577"
     id="path7198-4"
     cx="89.367523"
     cy="39.564651"
     rx="1.2804619"
     ry="1.4356523" />
  <path
     style="opacity:0.86799999;fill:#000000;fill-opacity:1;stroke-width:0.25076577"
     id="path7289"
     d="m 79.562935,36.831393 c 0.173021,-0.200008 0.380111,-0.36309 0.604817,-0.505057 0.410656,-0.177915 1.080254,-0.700797 1.655364,-0.811774 0.168932,-0.02476 0.340308,-0.02418 0.510732,-0.02495 0.172792,-0.01743 0.334421,0.01653 0.501666,0.05011 0.159203,0.04031 0.290717,0.126028 0.425279,0.212543 0.115388,0.06427 0.228954,0.129968 0.346605,0.190957 0.124103,0.05803 0.246733,0.118532 0.375513,0.168531 0.15796,0.05327 0.32575,0.0613 0.491361,0.06764 0.175982,-0.0019 0.355271,0.02032 0.528541,-0.01376 0.17332,-0.03516 0.355364,-0.06685 0.515409,-0.142219 0.454523,-0.183498 0.09739,-0.04268 -1.00164,0.559957 0,0 1.237506,-0.459528 1.237506,-0.459528 v 0 c -1.22606,0.674011 -0.772664,0.500276 -1.277652,0.68922 -0.175598,0.04952 -0.351475,0.09988 -0.534481,0.11658 -0.180748,0.008 -0.361975,0.0039 -0.542672,-0.0049 -0.176741,-0.01295 -0.353855,-0.03406 -0.51823,-0.102597 -0.130884,-0.05545 -0.259148,-0.114678 -0.385465,-0.17925 -0.117939,-0.06605 -0.237705,-0.128403 -0.352027,-0.200345 -0.121268,-0.08 -0.249691,-0.145031 -0.395779,-0.171418 -0.160211,-0.03139 -0.32009,-0.03654 -0.483528,-0.02862 -0.165227,0.0039 -0.3324,0.0069 -0.492797,0.0501 -0.483316,0.150038 -1.306865,0.62534 0.625772,-0.425365 -0.230034,0.122869 -0.439924,0.272918 -0.615655,0.46327 0,0 -1.218639,0.500451 -1.218639,0.500451 z"
     inkscape:connector-curvature="0" />
  <path
     style="opacity:0.86799999;fill:#000000;fill-opacity:1;stroke-width:0.25076577"
     id="path7291"
     d="m 87.480962,36.578239 c 0.06298,-0.236377 0.118768,-0.478292 0.265384,-0.680665 0.390347,-0.372438 0.113016,-0.118423 1.274663,-0.729255 0.02629,-0.01376 0.148115,-0.01743 0.175473,-0.02256 0.0497,-0.0099 0.09689,-0.02853 0.145819,-0.04109 0.159145,-0.03506 0.322945,-0.03922 0.48541,-0.04317 0.176933,-0.003 0.353907,-0.0019 0.530854,-0.0019 0.178541,2.46e-4 0.35709,4.9e-4 0.535641,4.9e-4 0.165572,-0.01802 0.299536,0.06655 0.446311,0.121006 0.115491,0.06228 0.228543,0.133078 0.352441,0.178857 0.136104,0.02614 0.221731,0.133797 0.350464,0.178817 0.133242,0.03475 0.259165,0.09139 0.384401,0.147017 0.138979,0.05159 0.289193,0.05635 0.436169,0.06199 0.09197,-0.03337 0.195333,-0.03159 0.288363,-0.05823 0.022,-0.0059 0.04157,-0.01873 0.06237,-0.02822 -0.362498,0.197016 -0.724995,0.394031 -1.087502,0.591057 0.108396,-0.06575 0.219151,-0.128157 0.316504,-0.208879 0.01776,-0.01318 0.03536,-0.02653 0.05313,-0.0397 0,0 1.23833,-0.461141 1.23833,-0.461141 v 0 c -0.01969,0.008 -0.03932,0.01643 -0.05899,0.02476 -0.106015,0.0717 -0.194679,0.164219 -0.311257,0.222364 -0.489048,0.267919 -0.977313,0.715891 -1.576685,0.703877 -0.159942,-0.01208 -0.320386,-0.0311 -0.466573,-0.09986 -0.124543,-0.05604 -0.255153,-0.09774 -0.383244,-0.145434 -0.118345,-0.05892 -0.217806,-0.146942 -0.350158,-0.178391 -0.118201,-0.05615 -0.232189,-0.120234 -0.350467,-0.176192 -0.134463,-0.05635 -0.264024,-0.09724 -0.414112,-0.08219 -0.178555,-1.37e-4 -0.357112,-4.88e-4 -0.535666,-4.88e-4 -0.176066,0 -0.352219,-4.9e-4 -0.528175,0.0059 -0.158439,0.008 -0.316895,0.02249 -0.46989,0.06585 -0.07616,0.01831 -0.156416,0.02703 -0.230956,0.051 -0.02554,0.008 -0.09761,0.04337 -0.07452,0.0301 0.939556,-0.544404 1.432199,-0.781285 0.980574,-0.562267 -0.188245,0.155299 -0.241669,0.397581 -0.290709,0.623423 0,0 -1.193437,0.55259 -1.193437,0.55259 z"
     inkscape:connector-curvature="0" />
  <ellipse
     style="opacity:0.86799999;fill:#000000;fill-opacity:1;stroke-width:0.46310657"
     id="path7200-9"
     cx="89.394127"
     cy="39.660084"
     rx="0.85567093"
     ry="0.88936365" />
</svg>
