<?xml version="1.0" encoding="UTF-8" standalone="no"?>
<!-- Created with Inkscape (http://www.inkscape.org/) -->

<svg
   xmlns:dc="http://purl.org/dc/elements/1.1/"
   xmlns:cc="http://creativecommons.org/ns#"
   xmlns:rdf="http://www.w3.org/1999/02/22-rdf-syntax-ns#"
   xmlns:svg="http://www.w3.org/2000/svg"
   xmlns="http://www.w3.org/2000/svg"
   xmlns:sodipodi="http://sodipodi.sourceforge.net/DTD/sodipodi-0.dtd"
   xmlns:inkscape="http://www.inkscape.org/namespaces/inkscape"
   width="680"
   height="680"
   version="1.1"
   viewBox="0 0 179.91666 179.91667"
   id="svg1687"
   sodipodi:docname="lvl_2_JU.svg"
   inkscape:version="0.92.4 (5da689c313, 2019-01-14)"
   inkscape:export-filename="/media/goofy/1ffc4969-9bf9-4884-8765-70536da6acb2/Faks/III_godina/Vestacka Inteligencija/Santorini project/Santorini_front-end/public/images/lvl_2_JU.png"
   inkscape:export-xdpi="96"
   inkscape:export-ydpi="96">
  <defs
     id="defs1691" />
  <sodipodi:namedview
     pagecolor="#ffffff"
     bordercolor="#666666"
     borderopacity="1"
     objecttolerance="10"
     gridtolerance="10"
     guidetolerance="10"
     inkscape:pageopacity="0"
     inkscape:pageshadow="2"
     inkscape:window-width="1920"
     inkscape:window-height="1000"
     id="namedview1689"
     showgrid="false"
     inkscape:zoom="0.84096521"
     inkscape:cx="399.22861"
     inkscape:cy="266.45416"
     inkscape:window-x="0"
     inkscape:window-y="27"
     inkscape:window-maximized="1"
     inkscape:current-layer="svg1687"
     units="px" />
  <metadata
     id="metadata1639">
    <rdf:RDF>
      <cc:Work
         rdf:about="">
        <dc:format>image/svg+xml</dc:format>
        <dc:type
           rdf:resource="http://purl.org/dc/dcmitype/StillImage" />
        <dc:title></dc:title>
      </cc:Work>
    </rdf:RDF>
  </metadata>
  <g
     id="g1685"
     transform="matrix(1.7576885,0,0,1.1118769,-79.578543,-150.26276)">
    <g
       id="g1655"
       style="opacity:0.86799999;fill:#8787be;fill-rule:evenodd">
      <path
         d="m 44.819,231.81 v 35.523 l 48.635,-14.861 v -31.254 z"
         points="44.81876,267.3332 93.453539,252.47238 93.453539,221.21789 44.81876,231.81005 "
         id="path1641"
         inkscape:connector-curvature="0"
         style="fill:#353564" />
      <path
         d="M 44.819,267.33 93.283,296.567 147.2,273.426 93.454,252.468 Z"
         points="93.282833,296.57045 147.19945,273.4299 93.453539,252.47238 44.81876,267.3332 "
         id="path1643"
         inkscape:connector-curvature="0"
         style="fill:#afafde" />
      <path
         d="m 93.454,221.22 53.746,12.85 v 39.362 L 93.454,252.474 Z"
         points="147.19945,234.06773 147.19945,273.4299 93.453539,252.47238 93.453539,221.21789 "
         id="path1645"
         inkscape:connector-curvature="0"
         style="fill:#e9e9ff" />
      <g
         id="g1653">
        <path
           d="M 44.819,231.81 93.283,250.189 147.2,234.068 93.454,221.218 Z"
           points="93.282833,250.18901 147.19945,234.06773 93.453539,221.21789 44.81876,231.81005 "
           id="path1647"
           inkscape:connector-curvature="0"
           style="fill:#6d9f4d" />
        <path
           d="m 93.283,250.19 v 46.381 L 147.2,273.43 v -39.362 z"
           points="93.282833,296.57045 147.19945,273.4299 147.19945,234.06773 93.282833,250.18901 "
           id="path1649"
           inkscape:connector-curvature="0"
           style="fill:#d7ffec" />
        <path
           d="m 44.819,231.81 48.464,18.379 V 296.57 L 44.819,267.333 Z"
           points="93.282833,250.18901 93.282833,296.57045 44.81876,267.3332 44.81876,231.81005 "
           id="path1651"
           inkscape:connector-curvature="0"
           style="fill:#97bf86" />
      </g>
    </g>
    <g
       id="g1669"
       style="opacity:0.86799999;fill-rule:evenodd">
      <path
         d="m 93.454,221.22 53.928,-11.745 z"
         points="93.453539,221.21789 147.38203,209.47283 147.38203,209.47283 93.453539,221.21789 "
         id="path1657"
         inkscape:connector-curvature="0"
         style="fill:#353564" />
      <path
         d="m 93.454,221.22 53.928,-11.745 z"
         points="93.453539,221.21789 147.38203,209.47283 147.38203,209.47283 93.453539,221.21789 "
         id="path1659"
         inkscape:connector-curvature="0"
         style="fill:#afafde" />
      <path
         d="m 93.454,221.22 53.928,-11.745 z"
         points="93.453539,221.21789 147.38203,209.47283 147.38203,209.47283 93.453539,221.21789 "
         id="path1661"
         inkscape:connector-curvature="0"
         style="fill:#d7d7ff" />
      <path
         d="M 147.38,209.47 Z"
         points="147.38203,209.47283 147.38203,209.47283 147.38203,209.47283 147.38203,209.47283 "
         id="path1663"
         inkscape:connector-curvature="0"
         style="fill:#e9e9ff" />
      <path
         d="m 93.454,221.22 53.928,-11.745 z"
         points="93.453539,221.21789 147.38203,209.47283 147.38203,209.47283 93.453539,221.21789 "
         id="path1665"
         inkscape:connector-curvature="0"
         style="fill:#4d4d9f" />
      <path
         d="M 93.454,221.22 Z"
         points="93.453539,221.21789 93.453539,221.21789 93.453539,221.21789 93.453539,221.21789 "
         id="path1667"
         inkscape:connector-curvature="0"
         style="fill:#8686bf" />
    </g>
    <g
       id="g1677"
       style="fill-rule:evenodd">
      <path
         d="m 52.185,196.14 v 37.498 l 42.726,-9.6741 v -33.466 z"
         id="path1671"
         inkscape:connector-curvature="0"
         style="fill:#353564" />
      <path
         d="m 52.185,233.64 41.098,15.346 46.555,-13.763 -44.927,-11.257 z"
         id="path1673"
         inkscape:connector-curvature="0"
         style="fill:#afafde" />
      <path
         d="m 94.911,190.5 44.927,4.0512 v 40.672 l -44.927,-11.257 z"
         id="path1675"
         inkscape:connector-curvature="0"
         style="fill:#e9e9ff" />
    </g>
    <path
       d="m 52.185,196.14 41.098,6.0578 46.555,-7.6488 -44.927,-4.0512 z"
       id="path1679"
       inkscape:connector-curvature="0"
       style="fill:#9d9f4d" />
    <path
       d="m 93.283,202.2 v 46.786 l 46.555,-13.763 v -40.672 z"
       id="path1681"
       inkscape:connector-curvature="0"
       style="fill:#faffd7" />
    <path
       d="m 52.185,196.14 41.098,6.0578 v 46.786 l -41.098,-15.346 z"
       id="path1683"
       inkscape:connector-curvature="0"
       style="fill:#bfbc86" />
  </g>
  <path
     inkscape:connector-curvature="0"
     style="fill:#00617e;fill-opacity:1;stroke-width:0.13924386"
     d="m 123.20494,38.478846 c 0,19.530413 -16.08733,35.36248 -35.932649,35.36248 -19.845311,0 -35.932658,-15.832067 -35.932658,-35.36248 0,-19.530405 16.087347,-35.3624709 35.932658,-35.3624709 19.845319,0 35.932649,15.8320659 35.932649,35.3624709 z m 0,0"
     id="path2" />
  <path
     inkscape:connector-curvature="0"
     style="fill:#034051;stroke-width:0.13924386"
     d="m 123.20494,38.478846 c 0,-1.941445 -0.1612,-3.845114 -0.46714,-5.701829 l -5.85684,-5.763345 -2.87521,4.86007 L 98.291802,16.409681 70.687656,49.034275 95.048121,73.00874 c 2.464541,-0.535262 4.834791,-1.317679 7.080589,-2.322922 l 0.40629,-0.399841 0.14749,0.145144 c 12.13363,-5.677545 20.52245,-17.850122 20.52245,-31.952275 z m 0,0"
     id="path4" />
  <path
     inkscape:connector-curvature="0"
     style="fill:#ffe000;stroke-width:0.13924386"
     d="m 116.88096,27.013672 -9.67068,8.93127 3.48107,2.511779 -5.05578,5.247504 2.41083,1.667326 -6.38703,9.08992 11.85951,-9.176794 -2.56984,-2.119509 4.80574,-5.08831 -3.65707,-2.822044 z m 0,0"
     id="path6" />
  <path
     inkscape:connector-curvature="0"
     style="fill:#d7d7d7;stroke-width:0.13924386"
     d="m 105.28523,38.985522 c 0,-1.3835 -0.62999,-2.621868 -1.62239,-3.453363 0.9924,-0.832046 1.62239,-2.069872 1.62239,-3.453373 0,-2.504769 -2.06322,-4.53524 -4.60836,-4.53524 -2.545178,0 -4.608383,2.030471 -4.608383,4.53524 0,1.383501 0.629975,2.621327 1.622375,3.453373 -0.9924,0.831495 -1.622375,2.069863 -1.622375,3.453363 0,1.345201 0.595975,2.553334 1.541235,3.384307 -0.9458,0.830422 -1.541235,2.038564 -1.541235,3.384288 0,2.504778 2.063205,4.535249 4.608383,4.535249 2.54514,0 4.60836,-2.030471 4.60836,-4.535249 0,-1.345724 -0.596,-2.553866 -1.54123,-3.384288 0.94523,-0.830973 1.54123,-2.039106 1.54123,-3.384307 z m 0,0"
     id="path8" />
  <path
     inkscape:connector-curvature="0"
     style="fill:#e6e6e6;stroke-width:0.13924386"
     d="m 78.476097,38.985522 c 0,-1.3835 -0.629985,-2.621868 -1.622391,-3.453363 0.992406,-0.832046 1.622391,-2.069872 1.622391,-3.453373 0,-2.504769 -2.063217,-4.53524 -4.608371,-4.53524 -2.545153,0 -4.608363,2.030471 -4.608363,4.53524 0,1.383501 0.629979,2.621327 1.622384,3.453373 -0.992405,0.831495 -1.622384,2.069863 -1.622384,3.453363 0,1.345201 0.595987,2.553334 1.54124,3.384307 -0.945802,0.830422 -1.54124,2.038564 -1.54124,3.384288 0,2.504778 2.06321,4.535249 4.608363,4.535249 2.545154,0 4.608371,-2.030471 4.608371,-4.535249 0,-1.345724 -0.595996,-2.553866 -1.541236,-3.384288 0.94524,-0.830973 1.541236,-2.039106 1.541236,-3.384307 z m 0,0"
     id="path10" />
  <path
     inkscape:connector-curvature="0"
     style="fill:#faa68e;stroke-width:0.13924386"
     d="m 113.03967,63.121325 -4.60947,-5.73529 -14.307596,-5.127709 c -1.319703,-0.473225 -2.197533,-1.707789 -2.197533,-3.090237 v -3.049745 h -9.305559 v 3.049745 c 0,1.382448 -0.877804,2.617012 -2.197539,3.090237 l -14.307599,5.127709 -4.419208,5.927384 c 6.515317,6.498801 15.56757,10.527907 25.577125,10.527907 10.107701,0 19.238899,-4.108968 25.767379,-10.720001 z m 0,0"
     id="path12" />
  <path
     inkscape:connector-curvature="0"
     style="fill:#e09380;stroke-width:0.13924386"
     d="M 108.4302,57.386035 94.122604,52.258326 C 92.802901,51.785101 91.925071,50.550537 91.925071,49.168089 V 46.118344 H 87.24543 v 27.722441 c 0.0096,0 0.01815,4.87e-4 0.02681,4.87e-4 10.107692,0 19.23889,-4.108969 25.76737,-10.720002 z m 0,0"
     id="path14" />
  <path
     inkscape:connector-curvature="0"
     style="fill:#ffbeaa;stroke-width:0.13924386"
     d="m 79.225055,33.26265 c 0,2.17238 -1.789062,3.933058 -3.996479,3.933058 -2.206856,0 -3.995928,-1.760678 -3.995928,-3.933058 0,-2.171849 1.789072,-3.932518 3.995928,-3.932518 2.207417,0 3.996479,1.760669 3.996479,3.932518 z m 0,0"
     id="path16" />
  <path
     inkscape:connector-curvature="0"
     style="fill:#faa68e;stroke-width:0.13924386"
     d="m 103.31192,33.26265 c 0,2.17238 -1.78905,3.933058 -3.995928,3.933058 -2.2074,0 -3.996466,-1.760678 -3.996466,-3.933058 0,-2.171849 1.789066,-3.932518 3.996466,-3.932518 2.206878,0 3.995928,1.760669 3.995928,3.932518 z m 0,0"
     id="path18" />
  <path
     inkscape:connector-curvature="0"
     style="fill:#ffbeaa;stroke-width:0.13924386"
     d="m 92.593443,47.98749 -2.668517,1.348966 c -1.665173,0.841741 -3.640104,0.841741 -5.304703,0 L 81.951699,47.98749 C 77.996892,45.987763 75.5104,41.980242 75.5104,37.604715 V 27.367638 c 0,-6.393041 5.265765,-11.575796 11.762449,-11.575796 6.495564,0 11.761873,5.182755 11.761873,11.575796 v 10.237077 c 0,4.375527 -2.48649,8.383589 -6.441279,10.382775 z m 0,0"
     id="path20" />
  <path
     inkscape:connector-curvature="0"
     style="fill:#faa68e;stroke-width:0.13924386"
     d="m 87.272291,15.791842 c -0.0085,0 -0.01815,5.14e-4 -0.02681,5.14e-4 v 34.174319 c 0.918941,0.0045 1.838414,-0.205046 2.678946,-0.630245 L 92.5935,47.987453 c 3.954782,-1.999707 6.441282,-6.007239 6.441282,-10.382755 V 27.367627 c 0,-6.393049 -5.266321,-11.575794 -11.762434,-11.575794 z m 0,0"
     id="path22" />
  <path
     inkscape:connector-curvature="0"
     style="fill:#ffffff;stroke-width:0.13924386"
     d="m 91.343341,61.547343 h -8.14209 c -4.457042,0 -8.070265,-3.55589 -8.070265,-7.942202 V 40.632345 c 0,-1.646823 1.356471,-2.98231 3.030389,-2.98231 H 96.38265 c 1.673922,0 3.030952,1.335487 3.030952,2.98231 v 12.972796 c 0,4.386312 -3.613239,7.942202 -8.070261,7.942202 z m 0,0"
     id="path24" />
  <path
     inkscape:connector-curvature="0"
     style="fill:#f2f6fc;stroke-width:0.13924386"
     d="M 96.383208,37.650035 H 87.24543 v 23.897308 h 4.097911 c 4.45703,0 8.070261,-3.55589 8.070261,-7.942202 V 40.632345 c 0,-1.646823 -1.35703,-2.98231 -3.030394,-2.98231 z m 0,0"
     id="path26" />
  <path
     inkscape:connector-curvature="0"
     style="fill:#ffbeaa;stroke-width:0.13924386"
     d="m 83.295559,42.116219 h 7.954023 v 2.026156 h -7.954023 z m 0,0"
     id="path28" />
  <path
     inkscape:connector-curvature="0"
     style="fill:#faa68e;stroke-width:0.13924386"
     d="m 87.24543,42.116219 h 4.004152 v 2.026156 H 87.24543 Z m 0,0"
     id="path30" />
  <path
     inkscape:connector-curvature="0"
     style="fill:#ffffff;stroke-width:0.13924386"
     d="m 99.864832,20.621166 c 0.0406,-0.243355 0.063,-0.492646 0.063,-0.746787 0,-2.504777 -2.06322,-4.535791 -4.608367,-4.535791 -1.055467,0 -2.027563,0.350198 -2.804484,0.937266 -0.941415,-1.197884 -2.415208,-1.97057 -4.073247,-1.97057 -0.59707,0 -1.170035,0.101438 -1.703521,0.285438 -0.813113,-0.529331 -1.786873,-0.837975 -2.834657,-0.837975 -2.201929,0 -4.08037,1.361377 -4.815073,3.27584 -0.391476,-0.09389 -0.799949,-0.144611 -1.22049,-0.144611 -2.84233,0 -5.146787,2.267347 -5.146787,5.065113 0,0.382577 0.04498,0.755428 0.12665,1.113717 -1.174981,0.928634 -1.927778,2.352597 -1.927778,3.950866 0,2.797228 2.303907,5.065114 5.14679,5.065114 2.842325,0 5.146788,-2.267346 5.146788,-5.065114 0,-0.02703 -0.0025,-0.05398 -0.0025,-0.08148 0.296616,0.05289 0.602023,0.08148 0.914545,0.08148 2.037985,0 3.799097,-1.166057 4.632495,-2.857128 0.528,0.179686 1.093831,0.278977 1.683793,0.278977 1.38278,0 2.637818,-0.538506 3.562236,-1.412105 0.718797,0.732222 1.684883,1.22648 2.766103,1.352744 -0.04112,0.243362 -0.0636,0.492645 -0.0636,0.746785 0,2.504778 2.063764,4.535791 4.608914,4.535791 2.545148,0 4.608358,-2.031013 4.608358,-4.535791 0,-2.321847 -1.77316,-4.234682 -4.059528,-4.501779 z m 0,0"
     id="path32" />
  <path
     inkscape:connector-curvature="0"
     style="fill:#f2f6fc;stroke-width:0.13924386"
     d="m 99.864832,20.621166 c 0.0406,-0.243355 0.063,-0.492646 0.063,-0.746787 0,-2.504777 -2.06322,-4.535791 -4.608367,-4.535791 -1.055467,0 -2.027563,0.350198 -2.804484,0.937266 -0.941415,-1.197884 -2.415208,-1.97057 -4.073247,-1.97057 -0.412299,0 -0.812006,0.04913 -1.196355,0.139753 v 9.850189 c 0.384349,0.09065 0.784056,0.140295 1.196355,0.140295 1.383347,0 2.638375,-0.538506 3.562785,-1.412105 0.718256,0.732222 1.684341,1.22648 2.766121,1.352744 -0.04103,0.243362 -0.0636,0.492645 -0.0636,0.746785 0,2.504778 2.063222,4.535791 4.608382,4.535791 2.545148,0 4.608918,-2.031013 4.608918,-4.535791 0,-2.321847 -1.77318,-4.234682 -4.059538,-4.501779 z m 0,0"
     id="path34" />
  <path
     inkscape:connector-curvature="0"
     style="fill:#e6e6e6;stroke-width:0.13924386"
     d="m 87.272291,73.841326 c 6.135355,0 11.909381,-1.516243 16.961859,-4.184504 l 1.919,-13.086648 -3.09835,-1.110471 c -1.11633,2.546322 -6.720395,11.091247 -32.367693,14.395144 4.962008,2.545782 10.602255,3.986479 16.585184,3.986479 z m 0,0"
     id="path36" />
  <path
     inkscape:connector-curvature="0"
     style="fill:#d7d7d7;stroke-width:0.13924386"
     d="m 103.0548,55.459703 c -0.81808,1.865898 -4.047488,6.954228 -15.80937,10.839785 v 7.541838 h 0.02681 c 6.135354,0 11.909382,-1.516243 16.96187,-4.184504 l 1.91898,-13.086648 z m 0,0"
     id="path38" />
  <ellipse
     style="fill:#ffffff;stroke-width:0.24752587"
     id="path252"
     cx="82.925598"
     cy="31.982412"
     rx="2.6829088"
     ry="2.1724513" />
  <ellipse
     style="fill:#00617e;fill-opacity:1;stroke-width:0.35302651"
     id="path1069"
     cx="83.10743"
     cy="31.910299"
     rx="1.0184354"
     ry="1.0216482" />
  <ellipse
     style="fill:#ffffff;stroke-width:0.24752587"
     id="path252-2"
     cx="92.005486"
     cy="31.767948"
     rx="2.6829088"
     ry="2.1724513" />
  <ellipse
     style="fill:#00617e;fill-opacity:1;stroke-width:0.35302651"
     id="path1069-2"
     cx="91.959839"
     cy="31.533388"
     rx="1.0184354"
     ry="1.0216482" />
  <path
     style="fill:#f2f2f2;fill-opacity:1;stroke-width:0.24752587"
     id="path1142"
     d="m 80.824677,29.998531 c -0.01905,-0.21201 0.01333,-0.422818 0.07097,-0.627037 0.04896,-0.125 0.130214,-0.23615 0.215277,-0.340895 0.574383,-0.636331 0.69487,-0.814494 1.305524,-0.974842 0.161847,-0.03391 0.319731,-0.09512 0.485932,-0.101922 0.145956,-0.0054 0.28711,-0.0187 0.432759,-0.0098 0.148696,7.33e-4 0.298315,0.02604 0.435639,0.08121 0.124382,0.0286 0.240048,0.078 0.359086,0.121378 0.109319,0.05031 0.209417,0.116549 0.317576,0.168624 0.05835,0.0559 0.141746,0.0594 0.209851,0.09666 0.03654,0.01999 0.07017,0.0449 0.10663,0.06497 0.08983,0.07698 0.196981,0.118071 0.3031,0.166625 0.113728,0.03208 0.208485,0.104334 0.323803,0.131151 0.124914,0.02557 0.243161,0.03959 0.371321,0.02675 0.147772,-0.0286 0.307238,-0.03941 0.441349,-0.108719 0.02039,-0.01062 0.04279,-0.01804 0.06118,-0.03179 0.03329,-0.02429 0.05684,-0.05948 0.08984,-0.08422 0.05486,-0.04115 0.116549,-0.06773 0.179652,-0.09473 0.397458,-0.263368 0.920314,-0.804175 -0.58789,0.594165 0.09737,-0.07332 0.130649,-0.185011 0.197389,-0.279068 0.08449,-0.09889 0.119488,-0.201407 0.143544,-0.32515 0.01747,-0.09536 0.0059,-0.04858 0.03405,-0.140451 0,0 0.989475,-0.727274 0.989475,-0.727274 v 0 c -0.04811,0.07001 -0.02879,0.03199 -0.05651,0.114674 -0.01316,0.124714 -0.01456,0.267199 -0.110658,0.36168 -0.08075,0.144125 0.02555,-0.03529 -0.06767,0.09137 -0.04828,0.06562 -0.03713,0.158697 -0.115416,0.206867 -0.369417,0.346466 -0.72534,0.793104 -1.199694,1.040911 -0.114492,0.06754 -0.2093,0.16351 -0.340665,0.202332 -0.154256,0.04151 -0.312041,0.07441 -0.472331,0.08422 -0.138382,0.0018 -0.272144,-0.02073 -0.405915,-0.05426 -0.11446,-0.04097 -0.219847,-0.10153 -0.335131,-0.141102 -0.112004,-0.04647 -0.215035,-0.104553 -0.312624,-0.17534 -0.101772,-0.05894 -0.212504,-0.09622 -0.312555,-0.158039 -0.101728,-0.05463 -0.201235,-0.113173 -0.307478,-0.159706 -0.116667,-0.04663 -0.236637,-0.08203 -0.356374,-0.120416 -0.132022,-0.0406 -0.268465,-0.05618 -0.407022,-0.0561 -0.139239,-0.0037 -0.278063,0.01493 -0.417069,0.02127 -0.158318,0.02924 -0.313265,0.07376 -0.468618,0.114662 -0.502322,0.152098 -0.962932,0.659655 0.503535,-0.638787 -0.10985,0.07855 -0.168372,0.197684 -0.252467,0.29923 -0.08283,0.181894 -0.112129,0.386296 -0.106475,0.583834 0,0 -0.944975,0.776902 -0.944975,0.776902 z"
     inkscape:connector-curvature="0"
     inkscape:transform-center-x="0.16768631"
     inkscape:transform-center-y="2.553275e-06" />
  <path
     style="fill:#f2f2f2;fill-opacity:1;stroke-width:0.22926752"
     id="path1142-6"
     d="m 89.576669,29.546311 c -0.02014,-0.182232 0.01116,-0.362559 0.06767,-0.536791 0.04828,-0.106411 0.128967,-0.200389 0.213479,-0.288791 0.571041,-0.536125 0.690595,-0.686939 1.3004,-0.814038 0.161672,-0.0263 0.319232,-0.07615 0.4854,-0.07908 0.145923,-0.0028 0.287003,-0.01096 0.432693,-0.0018 0.148688,0.0028 0.298439,0.0275 0.43608,0.07708 0.124573,0.02649 0.240465,0.07094 0.359719,0.110312 0.109629,0.0451 0.210024,0.10356 0.318458,0.150138 0.05859,0.04894 0.142045,0.05343 0.210332,0.08661 0.03654,0.01788 0.07042,0.03969 0.106984,0.05764 0.09025,0.06764 0.197605,0.104692 0.303966,0.148178 0.11396,0.02924 0.20905,0.09308 0.324484,0.118134 0.125039,0.02411 0.243361,0.03813 0.371439,0.0296 0.14763,-0.022 0.307021,-0.0285 0.440774,-0.0857 0.02031,-0.0092 0.0427,-0.01486 0.0611,-0.0263 0.03313,-0.02034 0.05651,-0.05013 0.08939,-0.07066 0.05469,-0.03446 0.116201,-0.05618 0.179144,-0.07818 0.396093,-0.219139 0.916086,-0.674209 -0.584759,0.499712 0.09701,-0.06122 0.12965,-0.156508 0.195932,-0.23606 0.08393,-0.08341 0.118389,-0.170767 0.14182,-0.276519 0.0169,-0.08158 0.0059,-0.0416 0.03354,-0.119884 0,0 0.985631,-0.607033 0.985631,-0.607033 v 0 c -0.04762,0.05912 -0.02855,0.02695 -0.0561,0.09741 -0.0124,0.106815 -0.01281,0.229056 -0.108754,0.308442 -0.08016,0.122277 0.02547,-0.02989 -0.06726,0.07717 -0.04794,0.05554 -0.03645,0.135455 -0.114293,0.175514 -0.36761,0.290918 -0.721186,0.668041 -1.194224,0.872518 -0.114152,0.05599 -0.208468,0.136702 -0.339609,0.167771 -0.154039,0.0329 -0.311649,0.05838 -0.471897,0.06415 -0.138374,-4.76e-4 -0.272228,-0.02246 -0.406199,-0.05343 -0.114668,-0.03711 -0.220379,-0.09091 -0.335863,-0.126806 -0.112237,-0.04179 -0.215585,-0.09338 -0.313539,-0.155828 -0.102082,-0.05233 -0.213003,-0.08624 -0.313372,-0.140974 -0.102015,-0.04877 -0.201833,-0.100502 -0.308319,-0.142283 -0.116915,-0.04206 -0.23706,-0.0745 -0.356997,-0.109481 -0.13223,-0.03711 -0.26879,-0.0528 -0.407297,-0.05517 -0.139214,-0.0065 -0.277972,0.0083 -0.416952,0.01108 -0.158153,0.02237 -0.312873,0.05784 -0.46802,0.09037 -0.501505,0.121882 -0.959452,0.549468 0.50019,-0.53945 -0.109429,0.06553 -0.167331,0.166727 -0.250902,0.252417 -0.0819,0.154637 -0.110094,0.32952 -0.103399,0.499105 0,0 -0.9409,0.650364 -0.9409,0.650364 z"
     inkscape:connector-curvature="0" />
</svg>
