<?xml version="1.0" encoding="UTF-8" standalone="no"?>
<!-- Created with Inkscape (http://www.inkscape.org/) -->

<svg
   xmlns:osb="http://www.openswatchbook.org/uri/2009/osb"
   xmlns:dc="http://purl.org/dc/elements/1.1/"
   xmlns:cc="http://creativecommons.org/ns#"
   xmlns:rdf="http://www.w3.org/1999/02/22-rdf-syntax-ns#"
   xmlns:svg="http://www.w3.org/2000/svg"
   xmlns="http://www.w3.org/2000/svg"
   xmlns:sodipodi="http://sodipodi.sourceforge.net/DTD/sodipodi-0.dtd"
   xmlns:inkscape="http://www.inkscape.org/namespaces/inkscape"
   width="680"
   height="680.51965"
   viewBox="0 0 179.91666 180.05416"
   version="1.1"
   id="svg5304"
   inkscape:version="0.92.4 (5da689c313, 2019-01-14)"
   sodipodi:docname="lvl_1_HE.svg"
   inkscape:export-filename="/media/goofy/1ffc4969-9bf9-4884-8765-70536da6acb2/Faks/III_godina/Vestacka Inteligencija/Santorini project/Santorini_front-end/public/images/lvl_1_HE.png"
   inkscape:export-xdpi="96"
   inkscape:export-ydpi="96">
  <defs
     id="defs5298">
    <inkscape:perspective
       sodipodi:type="inkscape:persp3d"
       inkscape:vp_x="-272.38892 : 170.56403 : 1"
       inkscape:vp_y="0 : 2727.7281 : 0"
       inkscape:vp_z="702.00572 : 208.56555 : 1"
       inkscape:persp3d-origin="229.65189 : 33.641428 : 1"
       id="perspective629" />
    <inkscape:perspective
       sodipodi:type="inkscape:persp3d"
       inkscape:vp_x="-692.18235 : 323.03837 : 1"
       inkscape:vp_y="0 : 7601.3112 : 0"
       inkscape:vp_z="1436.7571 : 428.93646 : 1"
       inkscape:persp3d-origin="404.71867 : -58.521431 : 1"
       id="perspective6615" />
    <linearGradient
       id="linearGradient6431"
       osb:paint="solid">
      <stop
         style="stop-color:#b90a53;stop-opacity:1;"
         offset="0"
         id="stop6429" />
    </linearGradient>
    <inkscape:perspective
       sodipodi:type="inkscape:persp3d"
       inkscape:vp_x="-97.621802 : 216.37852 : 1"
       inkscape:vp_y="0 : 2011.1803 : 0"
       inkscape:vp_z="465.66009 : 244.39739 : 1"
       inkscape:persp3d-origin="192.59992 : 115.42415 : 1"
       id="perspective5306" />
    <inkscape:perspective
       sodipodi:type="inkscape:persp3d"
       inkscape:vp_x="-68.082232 : 172.69745 : 1"
       inkscape:vp_y="0 : 1434.2155 : 0"
       inkscape:vp_z="354.20069 : 172.69745 : 1"
       inkscape:persp3d-origin="143.05921 : 101.70379 : 1"
       id="perspective5306-6" />
    <inkscape:perspective
       sodipodi:type="inkscape:persp3d"
       inkscape:vp_x="-20.797758 : 153.19529 : 1"
       inkscape:vp_y="0 : 627.59779 : 0"
       inkscape:vp_z="128.23724 : 161.9387 : 1"
       inkscape:persp3d-origin="55.990073 : 121.69203 : 1"
       id="perspective5306-3" />
    <inkscape:perspective
       sodipodi:type="inkscape:persp3d"
       inkscape:vp_x="-97.621803 : 216.37852 : 1"
       inkscape:vp_y="0 : 2011.1803 : 0"
       inkscape:vp_z="465.6601 : 244.39739 : 1"
       inkscape:persp3d-origin="192.59992 : 115.42415 : 1"
       id="perspective454" />
  </defs>
  <sodipodi:namedview
     id="base"
     pagecolor="#ffffff"
     bordercolor="#666666"
     borderopacity="1.0"
     inkscape:pageopacity="0.0"
     inkscape:pageshadow="2"
     inkscape:zoom="0.75544332"
     inkscape:cx="239.18391"
     inkscape:cy="264.29686"
     inkscape:document-units="mm"
     inkscape:current-layer="layer1"
     showgrid="false"
     inkscape:window-width="1920"
     inkscape:window-height="1000"
     inkscape:window-x="0"
     inkscape:window-y="27"
     inkscape:window-maximized="1"
     units="px" />
  <metadata
     id="metadata5301">
    <rdf:RDF>
      <cc:Work
         rdf:about="">
        <dc:format>image/svg+xml</dc:format>
        <dc:type
           rdf:resource="http://purl.org/dc/dcmitype/StillImage" />
        <dc:title />
      </cc:Work>
    </rdf:RDF>
  </metadata>
  <g
     inkscape:label="Layer 1"
     inkscape:groupmode="layer"
     id="layer1"
     transform="translate(0,-116.94584)">
    <g
       sodipodi:type="inkscape:box3d"
       id="g6503"
       style="opacity:0.86799999;fill:#8787be;fill-opacity:1"
       inkscape:perspectiveID="#perspective629"
       inkscape:corner0="0.83045816 : -0.0045277069 : 0 : 1"
       inkscape:corner7="0.40193245 : -0.036858797 : 0.25 : 1">
      <path
         sodipodi:type="inkscape:box3dside"
         id="path6505"
         style="fill:#353564;fill-rule:evenodd;stroke:none;stroke-width:1.53172064;stroke-linejoin:round"
         inkscape:box3dsidetype="6"
         d="M 1.8816539,207.98547 V 256.1649 L 86.012653,236.00943 v -42.3899 z"
         points="1.8816539,256.1649 86.012653,236.00943 86.012653,193.61953 1.8816539,207.98547 " />
      <path
         sodipodi:type="inkscape:box3dside"
         id="path6513"
         style="fill:#afafde;fill-rule:evenodd;stroke:none;stroke-width:1.53172064;stroke-linejoin:round"
         inkscape:box3dsidetype="13"
         d="M 1.8816539,256.1649 85.71736,295.81887 178.98515,264.43374 86.012653,236.00943 Z"
         points="85.71736,295.81887 178.98515,264.43374 86.012653,236.00943 1.8816539,256.1649 " />
      <path
         sodipodi:type="inkscape:box3dside"
         id="path6515"
         style="fill:#e9e9ff;fill-rule:evenodd;stroke:none;stroke-width:1.53172064;stroke-linejoin:round"
         inkscape:box3dsidetype="11"
         d="m 86.012653,193.61953 92.972497,17.428 v 53.38621 L 86.012653,236.00943 Z"
         points="178.98515,211.04753 178.98515,264.43374 86.012653,236.00943 86.012653,193.61953 " />
      <path
         sodipodi:type="inkscape:box3dside"
         id="path6507"
         style="fill:#6d9f4d;fill-opacity:1;fill-rule:evenodd;stroke:none;stroke-width:1.53172064;stroke-linejoin:round"
         inkscape:box3dsidetype="5"
         d="m 1.8816539,207.98547 83.8357061,24.92707 93.26779,-21.86501 -92.972497,-17.428 z"
         points="85.71736,232.91254 178.98515,211.04753 86.012653,193.61953 1.8816539,207.98547 " />
      <path
         sodipodi:type="inkscape:box3dside"
         id="path6511"
         style="fill:#d7ffec;fill-opacity:1;fill-rule:evenodd;stroke:none;stroke-width:1.53172064;stroke-linejoin:round"
         inkscape:box3dsidetype="14"
         d="m 85.71736,232.91254 v 62.90633 l 93.26779,-31.38513 v -53.38621 z"
         points="85.71736,295.81887 178.98515,264.43374 178.98515,211.04753 85.71736,232.91254 " />
      <path
         sodipodi:type="inkscape:box3dside"
         id="path6509"
         style="fill:#97bf86;fill-opacity:1;fill-rule:evenodd;stroke:none;stroke-width:1.53172064;stroke-linejoin:round"
         inkscape:box3dsidetype="3"
         d="M 1.8816539,207.98547 85.71736,232.91254 v 62.90633 L 1.8816539,256.1649 Z"
         points="85.71736,232.91254 85.71736,295.81887 1.8816539,256.1649 1.8816539,207.98547 " />
    </g>
    <g
       sodipodi:type="inkscape:box3d"
       id="g6587"
       style="opacity:0.86799999;fill:#8787be;fill-opacity:1"
       inkscape:perspectiveID="#perspective5306-3"
       inkscape:corner0="0.40077736 : 0.015695626 : 0 : 1"
       inkscape:corner7="0.40077736 : 0.015695626 : 0.25 : 1">
      <path
         sodipodi:type="inkscape:box3dside"
         id="path6589"
         style="fill:#353564;fill-rule:evenodd;stroke:none;stroke-width:1.08601034;stroke-linejoin:round"
         inkscape:box3dsidetype="6"
         d="m 34.020256,159.26236 v 0 l 14.268579,-3.6651 v 0 z"
         points="34.020256,159.26236 48.288835,155.59726 48.288835,155.59726 34.020256,159.26236 " />
      <path
         sodipodi:type="inkscape:box3dside"
         id="path6597"
         style="fill:#afafde;fill-rule:evenodd;stroke:none;stroke-width:1.08601034;stroke-linejoin:round"
         inkscape:box3dsidetype="13"
         d="m 34.020256,159.26236 v 0 l 14.268579,-3.6651 v 0 z"
         points="34.020256,159.26236 48.288835,155.59726 48.288835,155.59726 34.020256,159.26236 " />
      <path
         sodipodi:type="inkscape:box3dside"
         id="path6599"
         style="fill:#e9e9ff;fill-rule:evenodd;stroke:none;stroke-width:1.08601034;stroke-linejoin:round"
         inkscape:box3dsidetype="11"
         d="m 48.288835,155.59726 v 0 0 z"
         points="48.288835,155.59726 48.288835,155.59726 " />
      <path
         sodipodi:type="inkscape:box3dside"
         id="path6591"
         style="fill:#4d4d9f;fill-rule:evenodd;stroke:none;stroke-width:1.08601034;stroke-linejoin:round"
         inkscape:box3dsidetype="5"
         d="m 34.020256,159.26236 v 0 l 14.268579,-3.6651 v 0 z"
         points="34.020256,159.26236 48.288835,155.59726 48.288835,155.59726 34.020256,159.26236 " />
      <path
         sodipodi:type="inkscape:box3dside"
         id="path6595"
         style="fill:#d7d7ff;fill-rule:evenodd;stroke:none;stroke-width:1.08601034;stroke-linejoin:round"
         inkscape:box3dsidetype="14"
         d="m 34.020256,159.26236 v 0 l 14.268579,-3.6651 v 0 z"
         points="34.020256,159.26236 48.288835,155.59726 48.288835,155.59726 34.020256,159.26236 " />
      <path
         sodipodi:type="inkscape:box3dside"
         id="path6593"
         style="fill:#8686bf;fill-rule:evenodd;stroke:none;stroke-width:1.08601034;stroke-linejoin:round"
         inkscape:box3dsidetype="3"
         d="m 34.020256,159.26236 v 0 0 z"
         points="34.020256,159.26236 34.020256,159.26236 " />
    </g>
    <path
       inkscape:connector-curvature="0"
       id="path7021"
       style="fill:#a94343;fill-opacity:1;fill-rule:evenodd;stroke:none;stroke-width:2.14249468;stroke-linejoin:round"
       d="m 37.611049,217.91543 48.401561,4.13744 z"
       sodipodi:nodetypes="ccc" />
    <path
       d="m 137.38163,172.55362 c 0,27.33804 -22.98115,49.49925 -51.330637,49.49925 -28.3495,0 -51.33065,-22.16121 -51.33065,-49.49925 0,-27.33803 22.98115,-49.49925 51.33065,-49.49925 28.349487,0 51.330637,22.16122 51.330637,49.49925 z m 0,0"
       id="path2"
       inkscape:connector-curvature="0"
       style="fill:#0adebf;stroke-width:0.19690092" />
    <path
       d="m 102.48344,142.72076 -38.120463,25.75181 48.074693,46.5203 c 13.84462,-8.04456 23.44561,-22.22675 24.78261,-38.65918 z m 0,0"
       id="path4"
       inkscape:connector-curvature="0"
       style="fill:#00ad90;stroke-width:0.19724216" />
    <path
       d="m 122.8603,206.99531 -6.58474,-8.05593 -20.438721,-7.20249 c -1.885264,-0.66471 -3.13925,-2.39882 -3.13925,-4.3406 v -4.28378 H 79.404386 v 4.28378 c 0,1.94178 -1.253974,3.67589 -3.139246,4.3406 l -20.43873,7.20249 -6.312951,8.32575 c 9.307287,9.12837 22.238632,14.78774 36.537534,14.78774 14.439077,0 27.483227,-5.77155 36.809307,-15.05756 z m 0,0"
       id="path6"
       inkscape:connector-curvature="0"
       style="fill:#faa68e;stroke-width:0.19724216" />
    <path
       d="m 116.27556,198.93938 -20.438721,-7.20249 c -1.885264,-0.66471 -3.13925,-2.39882 -3.13925,-4.3406 v -4.28378 H 86.01261 v 38.93961 c 0.0122,0 0.02588,0.001 0.03834,0.001 14.43908,0 27.48322,-5.77158 36.81008,-15.05758 z m 0,0"
       id="path8"
       inkscape:connector-curvature="0"
       style="fill:#e09380;stroke-width:0.19724216" />
    <path
       d="m 86.050993,222.05287 c 8.764477,0 17.012827,-2.12973 24.230417,-5.87765 l 2.74136,-18.38181 -4.42612,-1.5598 c -1.59469,3.57661 -9.600215,15.57901 -46.237988,20.21975 7.088351,3.57587 15.145576,5.59951 23.692331,5.59951 z m 0,0"
       id="path10"
       inkscape:connector-curvature="0"
       style="fill:#00617e;stroke-width:0.19724216" />
    <path
       d="m 108.59665,196.23361 c -1.1686,2.6209 -5.78191,9.76807 -22.58404,15.22584 v 10.59342 h 0.03834 c 8.764493,0 17.01283,-2.12973 24.23043,-5.87765 l 2.74134,-18.38181 z m 0,0"
       id="path12"
       inkscape:connector-curvature="0"
       style="fill:#034051;stroke-width:0.19724216" />
    <path
       d="m 74.555319,165.05511 c 0,3.05138 -2.555729,5.52446 -5.70906,5.52446 -3.152553,0 -5.708275,-2.47308 -5.708275,-5.52446 0,-3.05062 2.555722,-5.52372 5.708275,-5.52372 3.153331,0 5.70906,2.4731 5.70906,5.52372 z m 0,0"
       id="path14"
       inkscape:connector-curvature="0"
       style="fill:#ffbeaa;stroke-width:0.19724216" />
    <path
       d="m 108.96399,165.05511 c 0,3.05138 -2.55573,5.52446 -5.70827,5.52446 -3.15334,0 -5.709068,-2.47308 -5.709068,-5.52446 0,-3.05062 2.555728,-5.52372 5.709068,-5.52372 3.15254,0 5.70827,2.4731 5.70827,5.52372 z m 0,0"
       id="path16"
       inkscape:connector-curvature="0"
       style="fill:#faa68e;stroke-width:0.19724216" />
    <path
       d="m 92.984382,186.68417 -3.812041,1.89481 c -2.378704,1.18235 -5.199951,1.18235 -7.577883,0 l -3.812041,-1.89481 c -5.649539,-2.80882 -9.201548,-8.4379 -9.201548,-14.58386 v -14.37925 c 0,-8.97982 7.522279,-16.25963 16.802923,-16.25963 9.279086,0 16.802138,7.27981 16.802138,16.25963 v 14.37925 c 0,6.14596 -3.552004,11.77578 -9.201548,14.58386 z m 0,0"
       id="path18"
       inkscape:connector-curvature="0"
       style="fill:#ffbeaa;stroke-width:0.19724216" />
    <path
       d="m 86.050993,140.51521 c -0.01219,0 -0.02588,7.8e-4 -0.03834,7.8e-4 V 188.518 c 1.312727,0.007 2.62622,-0.28801 3.827717,-0.88525 l 3.812032,-1.89479 c 5.649539,-2.80885 9.201548,-8.43792 9.201548,-14.58388 v -14.37924 c 0,-8.97982 -7.523042,-16.25963 -16.802909,-16.25963 z m 0,0"
       id="path20"
       inkscape:connector-curvature="0"
       style="fill:#faa68e;stroke-width:0.19724216" />
    <path
       d="m 72.015268,169.32371 v -9.79232 h -3.308419 v 26.33617 c 0,6.16112 5.161571,11.1558 11.528562,11.1558 h 11.631166 c 6.366981,0 11.528543,-4.99468 11.528543,-11.1558 v -26.33617 h -3.30842 v 9.79232 c 0,2.18507 -1.830429,3.95633 -4.088513,3.95633 H 76.103012 c -2.257304,0 -4.087744,-1.77126 -4.087744,-3.95633 z m 0,0"
       id="path22"
       inkscape:connector-curvature="0"
       style="fill:#00617e;stroke-width:0.19724216" />
    <path
       d="m 100.0867,159.53139 v 9.79232 c 0,2.18507 -1.830429,3.95633 -4.088513,3.95633 H 86.01261 v 23.74332 h 5.853967 c 6.366981,0 11.528543,-4.99468 11.528543,-11.1558 v -26.33617 z m 0,0"
       id="path24"
       inkscape:connector-curvature="0"
       style="fill:#034051;stroke-width:0.19724216" />
    <path
       d="m 80.370127,177.49104 h 11.362515 v 2.84598 H 80.370127 Z m 0,0"
       id="path26"
       inkscape:connector-curvature="0"
       style="fill:#ffbeaa;stroke-width:0.19724216" />
    <path
       d="m 86.01261,177.49104 h 5.720032 v 2.84598 H 86.01261 Z m 0,0"
       id="path28"
       inkscape:connector-curvature="0"
       style="fill:#faa68e;stroke-width:0.19724216" />
    <path
       d="m 104.73537,148.42334 c 0.058,-0.35699 0.0901,-0.72307 0.0901,-1.09672 0,-3.67742 -2.94736,-6.65832 -6.583174,-6.65832 -1.507727,0 -2.896419,0.51388 -4.006269,1.37639 -1.344047,-1.75914 -3.450197,-2.89375 -5.817939,-2.89375 -0.853733,0 -1.672226,0.14856 -2.434325,0.41914 -1.161541,-0.77686 -2.552579,-1.23009 -4.049352,-1.23009 -3.145522,0 -5.828903,1.99863 -6.878463,4.80898 -0.559227,-0.13795 -1.142748,-0.21221 -1.743492,-0.21221 -4.060333,0 -7.352305,3.32953 -7.352305,7.43594 0,0.56238 0.06423,1.10958 0.180921,1.63559 -1.678495,1.36273 -2.753876,3.45384 -2.753876,5.80036 0,4.10716 3.291182,7.43592 7.352301,7.43592 4.060343,0 7.352316,-3.32876 7.352316,-7.43592 0,-0.0395 -0.0029,-0.0795 -0.0029,-0.11903 0.423736,0.0765 0.860006,0.11903 1.306453,0.11903 2.911321,0 5.427102,-1.71139 6.617625,-4.19432 0.754252,0.26375 1.562568,0.40851 2.405342,0.40851 1.975344,0 3.768183,-0.78975 5.088738,-2.07217 1.026822,1.07474 2.40689,1.80082 3.951468,1.98652 -0.05878,0.35621 -0.09094,0.72229 -0.09094,1.09595 0,3.67743 2.948111,6.65908 6.583941,6.65908 3.63579,0 6.58314,-2.98165 6.58314,-6.65908 0,-3.40836 -2.53378,-6.21721 -5.79913,-6.6098 z m 0,0"
       id="path30"
       inkscape:connector-curvature="0"
       style="fill:#00617e;stroke-width:0.19724216" />
    <path
       d="m 104.03974,148.21945 c 0.058,-0.35698 0.0901,-0.72305 0.0901,-1.0967 0,-3.67742 -2.94736,-6.65833 -6.583174,-6.65833 -1.507739,0 -2.896438,0.51389 -4.006289,1.3764 -1.344037,-1.75914 -3.450187,-2.89374 -5.81793,-2.89374 -0.58901,0 -1.160769,0.0728 -1.709823,0.20539 v 14.46186 c 0.549054,0.13339 1.120813,0.20539 1.709823,0.20539 1.975346,0 3.768183,-0.78976 5.088726,-2.07291 1.026834,1.07549 2.406922,1.80081 3.951477,1.9865 -0.05878,0.35698 -0.09094,0.72306 -0.09094,1.09671 0,3.67743 2.948115,6.65833 6.58394,6.65833 3.63582,0 6.58317,-2.9809 6.58317,-6.65833 0,-3.40912 -2.53381,-6.21796 -5.79915,-6.61057 z m 0,0"
       id="path32"
       inkscape:connector-curvature="0"
       style="fill:#034051;stroke-width:0.19724216" />
    <ellipse
       style="opacity:0.86799999;fill:#a94343;fill-opacity:1;stroke-width:0.29505908"
       id="path7182"
       cx="80.296959"
       cy="165.12103"
       rx="3.2321203"
       ry="3.1840596" />
    <ellipse
       style="opacity:0.86799999;fill:#ffffff;fill-opacity:1;stroke-width:0.35087734"
       id="path7198"
       cx="80.342026"
       cy="165.39009"
       rx="1.7996391"
       ry="1.9998828" />
    <ellipse
       style="opacity:0.86799999;fill:#000000;fill-opacity:1;stroke-width:0.64798963"
       id="path7200"
       cx="80.28862"
       cy="165.54584"
       rx="1.202612"
       ry="1.2388953" />
    <ellipse
       style="opacity:0.86799999;fill:#a94343;fill-opacity:1;stroke-width:0.30351993"
       id="path7182-0"
       cx="91.465927"
       cy="164.95047"
       rx="3.4201384"
       ry="3.1840596" />
    <ellipse
       style="opacity:0.86799999;fill:#ffffff;fill-opacity:1;stroke-width:0.35087734"
       id="path7198-4"
       cx="91.448311"
       cy="164.97937"
       rx="1.7996391"
       ry="1.9998828" />
    <path
       style="opacity:0.86799999;fill:#000000;fill-opacity:1;stroke-width:0.35087734"
       id="path7289"
       d="m 77.668361,161.17188 c 0.243166,-0.2786 0.53423,-0.5058 0.850047,-0.70355 0.577151,-0.24784 1.51825,-0.97622 2.326538,-1.1308 0.237436,-0.0344 0.478298,-0.0336 0.717822,-0.0348 0.242854,-0.0243 0.47002,0.0231 0.705071,0.0698 0.223749,0.0563 0.408587,0.17554 0.597707,0.29609 0.162168,0.0895 0.321792,0.18104 0.487145,0.26597 0.17442,0.0808 0.346777,0.16511 0.527767,0.23477 0.222005,0.0742 0.457829,0.0854 0.690587,0.0942 0.24734,-0.004 0.499314,0.0283 0.742845,-0.0192 0.243589,-0.0489 0.49945,-0.0931 0.724393,-0.19812 0.638801,-0.2556 0.136876,-0.0594 -1.407771,0.78005 0,0 1.739266,-0.64014 1.739266,-0.64014 v 0 c -1.723181,0.93891 -1.08595,0.6969 -1.795686,0.96011 -0.246808,0.069 -0.493984,0.1391 -0.75119,0.1624 -0.254035,0.0118 -0.508745,0.006 -0.762709,-0.007 -0.248394,-0.018 -0.497336,-0.0475 -0.728349,-0.14292 -0.183955,-0.0773 -0.364229,-0.15975 -0.541762,-0.2497 -0.165761,-0.092 -0.334083,-0.17885 -0.494761,-0.27909 -0.170436,-0.11134 -0.350924,-0.202 -0.556248,-0.23876 -0.225174,-0.0438 -0.449873,-0.051 -0.679586,-0.0399 -0.232217,0.006 -0.467175,0.0106 -0.692605,0.0699 -0.679271,0.20902 -1.836737,0.87112 0.879503,-0.59254 -0.323309,0.17116 -0.618302,0.38019 -0.865275,0.64533 0,0 -1.712749,0.69716 -1.712749,0.69716 z"
       inkscape:connector-curvature="0" />
    <path
       style="opacity:0.86799999;fill:#000000;fill-opacity:1;stroke-width:0.35087734"
       id="path7291"
       d="m 88.796839,160.81923 c 0.08848,-0.32928 0.166912,-0.66627 0.372982,-0.94816 0.548616,-0.51883 0.158836,-0.16498 1.791483,-1.01588 0.03699,-0.0192 0.208167,-0.0243 0.246618,-0.0315 0.06978,-0.0131 0.136187,-0.0397 0.204949,-0.0572 0.223682,-0.0488 0.453895,-0.0547 0.682225,-0.06 0.248682,-0.004 0.497405,-0.002 0.746099,-0.002 0.250931,3.4e-4 0.501873,6.8e-4 0.752818,6.8e-4 0.232694,-0.025 0.420986,0.0928 0.627272,0.16859 0.162318,0.0867 0.321209,0.18537 0.49534,0.24914 0.191268,0.0364 0.311634,0.18638 0.492571,0.24909 0.187254,0.0484 0.364233,0.12732 0.540252,0.20477 0.19533,0.0719 0.406453,0.0786 0.613018,0.0865 0.129264,-0.0465 0.27454,-0.044 0.405285,-0.0811 0.03089,-0.009 0.05843,-0.0261 0.0877,-0.0392 -0.509476,0.27443 -1.018951,0.54888 -1.528438,0.82335 0.152346,-0.0916 0.308013,-0.17854 0.444832,-0.29097 0.02499,-0.0184 0.04975,-0.0369 0.07463,-0.0553 0,0 1.740417,-0.64238 1.740417,-0.64238 v 0 c -0.02765,0.0118 -0.05531,0.0229 -0.08296,0.0344 -0.149003,0.10002 -0.273615,0.22875 -0.437462,0.30974 -0.687334,0.37322 -1.373581,0.99724 -2.215968,0.9805 -0.224793,-0.0169 -0.450289,-0.0433 -0.655749,-0.1391 -0.175042,-0.0781 -0.358606,-0.1362 -0.538631,-0.2026 -0.166333,-0.0821 -0.306131,-0.2047 -0.492148,-0.2485 -0.166112,-0.0782 -0.326331,-0.16749 -0.492552,-0.24543 -0.188984,-0.0785 -0.371084,-0.1355 -0.582019,-0.11452 -0.250956,-1.8e-4 -0.501902,-6.7e-4 -0.752857,-6.7e-4 -0.247451,0 -0.495034,-7e-4 -0.742334,0.009 -0.222677,0.0118 -0.445373,0.0314 -0.660412,0.0918 -0.107037,0.0256 -0.219832,0.0377 -0.324597,0.071 -0.0359,0.0118 -0.137183,0.0605 -0.104734,0.042 1.320502,-0.75833 2.012904,-1.08833 1.378154,-0.78323 -0.264575,0.21635 -0.33965,0.55381 -0.408576,0.86844 0,0 -1.67733,0.76975 -1.67733,0.76975 z"
       inkscape:connector-curvature="0" />
    <ellipse
       style="opacity:0.86799999;fill:#000000;fill-opacity:1;stroke-width:0.64798963"
       id="path7200-9"
       cx="91.485672"
       cy="165.1123"
       rx="1.202612"
       ry="1.2388953" />
  </g>
</svg>
