<?xml version="1.0" encoding="UTF-8" standalone="no"?>
<!-- Created with Inkscape (http://www.inkscape.org/) -->

<svg
   xmlns:osb="http://www.openswatchbook.org/uri/2009/osb"
   xmlns:dc="http://purl.org/dc/elements/1.1/"
   xmlns:cc="http://creativecommons.org/ns#"
   xmlns:rdf="http://www.w3.org/1999/02/22-rdf-syntax-ns#"
   xmlns:svg="http://www.w3.org/2000/svg"
   xmlns="http://www.w3.org/2000/svg"
   xmlns:sodipodi="http://sodipodi.sourceforge.net/DTD/sodipodi-0.dtd"
   xmlns:inkscape="http://www.inkscape.org/namespaces/inkscape"
   width="680"
   height="680.70081"
   viewBox="0 0 179.91667 180.10209"
   version="1.1"
   id="svg5304"
   inkscape:version="0.92.4 (5da689c313, 2019-01-14)"
   sodipodi:docname="lvl_3_JU.svg"
   inkscape:export-filename="/media/goofy/1ffc4969-9bf9-4884-8765-70536da6acb2/Faks/III_godina/Vestacka Inteligencija/Santorini project/Santorini_front-end/public/images/lvl_3_JU.png"
   inkscape:export-xdpi="96"
   inkscape:export-ydpi="96">
  <defs
     id="defs5298">
    <inkscape:perspective
       sodipodi:type="inkscape:persp3d"
       inkscape:vp_x="1593.8177 : 26.705039 : 1"
       inkscape:vp_y="0 : 7601.311 : 0"
       inkscape:vp_z="-410.03453 : 153.76979 : 1"
       inkscape:persp3d-origin="404.71868 : -58.521431 : 1"
       id="perspective6615" />
    <linearGradient
       id="linearGradient6431"
       osb:paint="solid">
      <stop
         style="stop-color:#b90a53;stop-opacity:1;"
         offset="0"
         id="stop6429" />
    </linearGradient>
    <inkscape:perspective
       sodipodi:type="inkscape:persp3d"
       inkscape:vp_x="-273.66506 : 146.10755 : 1"
       inkscape:vp_y="0 : 2345.9862 : 0"
       inkscape:vp_z="705.37423 : 178.79079 : 1"
       inkscape:persp3d-origin="230.76881 : 28.347063 : 1"
       id="perspective5306" />
    <inkscape:perspective
       sodipodi:type="inkscape:persp3d"
       inkscape:vp_x="-68.082234 : 172.69745 : 1"
       inkscape:vp_y="0 : 1434.2155 : 0"
       inkscape:vp_z="354.20069 : 172.69745 : 1"
       inkscape:persp3d-origin="143.05922 : 101.70379 : 1"
       id="perspective5306-6" />
    <inkscape:perspective
       sodipodi:type="inkscape:persp3d"
       inkscape:vp_x="-11.278798 : 138.15047 : 1"
       inkscape:vp_y="0 : 787.83058 : 0"
       inkscape:vp_z="277.42144 : 149.12616 : 1"
       inkscape:persp3d-origin="137.46924 : 98.604073 : 1"
       id="perspective5306-1" />
    <inkscape:perspective
       sodipodi:type="inkscape:persp3d"
       inkscape:vp_x="-46.380289 : 119.11059 : 1"
       inkscape:vp_y="0 : 705.04394 : 0"
       inkscape:vp_z="294.34219 : 129.17758 : 1"
       inkscape:persp3d-origin="149.20529 : 110.38205 : 1"
       id="perspective5306-0" />
  </defs>
  <sodipodi:namedview
     id="base"
     pagecolor="#ffffff"
     bordercolor="#666666"
     borderopacity="1.0"
     inkscape:pageopacity="0.0"
     inkscape:pageshadow="2"
     inkscape:zoom="1.0729879"
     inkscape:cx="355.01593"
     inkscape:cy="448.77074"
     inkscape:document-units="mm"
     inkscape:current-layer="layer1"
     showgrid="false"
     inkscape:window-width="1920"
     inkscape:window-height="1000"
     inkscape:window-x="0"
     inkscape:window-y="27"
     inkscape:window-maximized="1"
     units="px" />
  <metadata
     id="metadata5301">
    <rdf:RDF>
      <cc:Work
         rdf:about="">
        <dc:format>image/svg+xml</dc:format>
        <dc:type
           rdf:resource="http://purl.org/dc/dcmitype/StillImage" />
        <dc:title></dc:title>
      </cc:Work>
    </rdf:RDF>
  </metadata>
  <g
     inkscape:label="Layer 1"
     inkscape:groupmode="layer"
     id="layer1"
     transform="translate(0,-116.8979)">
    <g
       sodipodi:type="inkscape:box3d"
       id="g6503"
       style="opacity:0.86799999;fill:#8787be;fill-opacity:1"
       inkscape:perspectiveID="#perspective5306"
       inkscape:corner0="0.83045816 : -0.0045277069 : 0 : 1"
       inkscape:corner7="0.40193245 : -0.036858797 : 0.25 : 1">
      <path
         sodipodi:type="inkscape:box3dside"
         id="path6505"
         style="fill:#353564;fill-rule:evenodd;stroke:none;stroke-width:1.42388308;stroke-linejoin:round"
         inkscape:box3dsidetype="6"
         d="m 1.9128696,221.02921 v 41.43678 L 86.444892,245.13125 v -36.45749 z"
         points="1.9128696,262.46599 86.444892,245.13125 86.444892,208.67376 1.9128696,221.02921 " />
      <path
         sodipodi:type="inkscape:box3dside"
         id="path6513"
         style="fill:#afafde;fill-rule:evenodd;stroke:none;stroke-width:1.42388308;stroke-linejoin:round"
         inkscape:box3dsidetype="13"
         d="M 1.9128696,262.46599 86.148188,296.57044 179.86056,269.57762 86.444892,245.13125 Z"
         points="86.148188,296.57044 179.86056,269.57762 86.444892,245.13125 1.9128696,262.46599 " />
      <path
         sodipodi:type="inkscape:box3dside"
         id="path6515"
         style="fill:#e9e9ff;fill-rule:evenodd;stroke:none;stroke-width:1.42388308;stroke-linejoin:round"
         inkscape:box3dsidetype="11"
         d="m 86.444892,208.67376 93.415668,14.98898 v 45.91488 L 86.444892,245.13125 Z"
         points="179.86056,223.66274 179.86056,269.57762 86.444892,245.13125 86.444892,208.67376 " />
      <path
         sodipodi:type="inkscape:box3dside"
         id="path6507"
         style="fill:#6d9f4d;fill-opacity:1;fill-rule:evenodd;stroke:none;stroke-width:1.42388308;stroke-linejoin:round"
         inkscape:box3dsidetype="5"
         d="M 1.9128696,221.02921 86.148188,242.46777 179.86056,223.66274 86.444892,208.67376 Z"
         points="86.148188,242.46777 179.86056,223.66274 86.444892,208.67376 1.9128696,221.02921 " />
      <path
         sodipodi:type="inkscape:box3dside"
         id="path6511"
         style="fill:#d7ffec;fill-opacity:1;fill-rule:evenodd;stroke:none;stroke-width:1.42388308;stroke-linejoin:round"
         inkscape:box3dsidetype="14"
         d="m 86.148188,242.46777 v 54.10267 l 93.712372,-26.99282 v -45.91488 z"
         points="86.148188,296.57044 179.86056,269.57762 179.86056,223.66274 86.148188,242.46777 " />
      <path
         sodipodi:type="inkscape:box3dside"
         id="path6509"
         style="fill:#97bf86;fill-opacity:1;fill-rule:evenodd;stroke:none;stroke-width:1.42388308;stroke-linejoin:round"
         inkscape:box3dsidetype="3"
         d="m 1.9128696,221.02921 84.2353184,21.43856 v 54.10267 L 1.9128696,262.46599 Z"
         points="86.148188,242.46777 86.148188,296.57044 1.9128696,262.46599 1.9128696,221.02921 " />
    </g>
    <g
       sodipodi:type="inkscape:box3d"
       id="g6587"
       style="opacity:0.86799999;fill:#8787be;fill-opacity:1"
       inkscape:perspectiveID="#perspective5306"
       inkscape:corner0="0.40077736 : 0.015695626 : 0 : 1"
       inkscape:corner7="0.40077736 : 0.015695626 : 0.25 : 1">
      <path
         sodipodi:type="inkscape:box3dside"
         id="path6589"
         style="fill:#353564;fill-rule:evenodd;stroke:none;stroke-width:1.42388308;stroke-linejoin:round"
         inkscape:box3dsidetype="6"
         d="m 86.444892,208.67376 v 0 l 93.733008,-13.7003 v 0 z"
         points="86.444892,208.67376 180.1779,194.97346 180.1779,194.97346 86.444892,208.67376 " />
      <path
         sodipodi:type="inkscape:box3dside"
         id="path6597"
         style="fill:#afafde;fill-rule:evenodd;stroke:none;stroke-width:1.42388308;stroke-linejoin:round"
         inkscape:box3dsidetype="13"
         d="m 86.444892,208.67376 v 0 l 93.733008,-13.7003 v 0 z"
         points="86.444892,208.67376 180.1779,194.97346 180.1779,194.97346 86.444892,208.67376 " />
      <path
         sodipodi:type="inkscape:box3dside"
         id="path6599"
         style="fill:#e9e9ff;fill-rule:evenodd;stroke:none;stroke-width:1.42388308;stroke-linejoin:round"
         inkscape:box3dsidetype="11"
         d="m 180.1779,194.97346 v 0 0 z"
         points="180.1779,194.97346 180.1779,194.97346 " />
      <path
         sodipodi:type="inkscape:box3dside"
         id="path6591"
         style="fill:#4d4d9f;fill-rule:evenodd;stroke:none;stroke-width:1.42388308;stroke-linejoin:round"
         inkscape:box3dsidetype="5"
         d="m 86.444892,208.67376 v 0 l 93.733008,-13.7003 v 0 z"
         points="86.444892,208.67376 180.1779,194.97346 180.1779,194.97346 86.444892,208.67376 " />
      <path
         sodipodi:type="inkscape:box3dside"
         id="path6595"
         style="fill:#d7d7ff;fill-rule:evenodd;stroke:none;stroke-width:1.42388308;stroke-linejoin:round"
         inkscape:box3dsidetype="14"
         d="m 86.444892,208.67376 v 0 l 93.733008,-13.7003 v 0 z"
         points="86.444892,208.67376 180.1779,194.97346 180.1779,194.97346 86.444892,208.67376 " />
      <path
         sodipodi:type="inkscape:box3dside"
         id="path6593"
         style="fill:#8686bf;fill-rule:evenodd;stroke:none;stroke-width:1.42388308;stroke-linejoin:round"
         inkscape:box3dsidetype="3"
         d="m 86.444892,208.67376 v 0 0 z"
         points="86.444892,208.67376 86.444892,208.67376 " />
    </g>
    <path
       inkscape:connector-curvature="0"
       id="path6715"
       style="fill:#353564;fill-opacity:1;fill-rule:evenodd;stroke:none;stroke-width:1.4238832;stroke-linejoin:round"
       d="m 14.716373,179.42011 v 43.73981 l 74.261449,-11.28459 v -39.03678 z" />
    <path
       inkscape:connector-curvature="0"
       id="path6717"
       style="fill:#afafde;fill-opacity:1;fill-rule:evenodd;stroke:none;stroke-width:1.4238832;stroke-linejoin:round"
       d="M 14.716373,223.15992 86.148193,241.0605 167.06602,225.00681 88.977822,211.87533 Z" />
    <path
       inkscape:connector-curvature="0"
       id="path6719"
       style="fill:#e9e9ff;fill-opacity:1;fill-rule:evenodd;stroke:none;stroke-width:1.4238832;stroke-linejoin:round"
       d="m 88.977822,172.83855 78.088198,4.72567 v 47.44259 L 88.977822,211.87533 Z" />
    <path
       inkscape:connector-curvature="0"
       id="path6721"
       style="fill:#9d9f4d;fill-opacity:1;stroke-width:1.4238832"
       d="m 14.716373,179.42011 71.43182,7.06627 80.917827,-8.92216 -78.088198,-4.72567 z" />
    <path
       inkscape:connector-curvature="0"
       id="path6723"
       style="fill:#faffd7;fill-opacity:1;stroke-width:1.4238832"
       d="M 86.148193,186.48638 V 241.0605 L 167.06602,225.00681 V 177.56422 Z" />
    <path
       inkscape:connector-curvature="0"
       id="path6725"
       style="fill:#bfbc86;fill-opacity:1;stroke-width:1.4238832"
       d="m 14.716373,179.42011 71.43182,7.06627 v 54.57412 l -71.43182,-17.90058 z" />
    <path
       inkscape:connector-curvature="0"
       id="path7015"
       style="fill:#353564;fill-opacity:1;fill-rule:evenodd;stroke:none;stroke-width:2.30038881;stroke-linejoin:round"
       d="m 24.058235,168.95089 v 10.2831 l 65.19444,-5.20295 v -8.65414 z" />
    <path
       inkscape:connector-curvature="0"
       id="path7017"
       style="fill:#afafde;fill-opacity:1;fill-rule:evenodd;stroke:none;stroke-width:2.30038881;stroke-linejoin:round"
       d="m 24.058235,179.23399 62.089958,7.25239 70.544027,-8.09418 -67.439545,-4.36116 z" />
    <path
       inkscape:connector-curvature="0"
       id="path7019"
       style="fill:#e9e9ff;fill-opacity:1;fill-rule:evenodd;stroke:none;stroke-width:2.30038881;stroke-linejoin:round"
       d="m 89.252675,165.3769 67.439545,1.98724 v 11.02806 l -67.439545,-4.36116 z" />
    <path
       inkscape:connector-curvature="0"
       id="path7021"
       style="fill:#a94343;fill-opacity:1;fill-rule:evenodd;stroke:none;stroke-width:2.30038881;stroke-linejoin:round"
       d="m 24.058235,168.95089 62.089958,3.7182 70.544027,-5.30495 -67.439545,-1.98724 z" />
    <path
       inkscape:connector-curvature="0"
       id="path7023"
       style="fill:#ffe3d7;fill-opacity:1;fill-rule:evenodd;stroke:none;stroke-width:2.30038881;stroke-linejoin:round"
       d="m 86.148193,172.66909 v 13.81729 l 70.544027,-8.09418 v -11.02806 z" />
    <path
       inkscape:connector-curvature="0"
       id="path7025"
       style="fill:#dc7069;fill-opacity:1;fill-rule:evenodd;stroke:none;stroke-width:2.30038881;stroke-linejoin:round"
       d="m 24.058235,168.95089 62.089958,3.7182 v 13.81729 l -62.089958,-7.25239 z" />
    <path
       inkscape:connector-curvature="0"
       style="fill:#00617e;fill-opacity:1;stroke-width:0.11623768"
       d="m 118.60918,145.39112 c 0,15.0654 -14.53303,27.27797 -32.460987,27.27797 -17.927926,0 -32.460978,-12.21257 -32.460978,-27.27797 0,-15.0654 14.533052,-27.27796 32.460978,-27.27796 17.927957,0 32.460987,12.21256 32.460987,27.27796 z m 0,0"
       id="path2" />
    <path
       inkscape:connector-curvature="0"
       style="fill:#034051;stroke-width:0.11623768"
       d="m 118.60918,145.39112 c 0,-1.49759 -0.14563,-2.96605 -0.42202,-4.39828 l -5.29094,-4.44574 -2.59744,3.74897 -14.195737,-11.9287 -24.937138,25.16602 22.006854,18.49347 c 2.226432,-0.4129 4.367682,-1.01645 6.396501,-1.79187 l 0.367031,-0.30843 0.133239,0.11196 c 10.96132,-4.37954 18.53965,-13.76925 18.53965,-24.6474 z m 0,0"
       id="path4" />
    <path
       inkscape:connector-curvature="0"
       style="fill:#ffe000;stroke-width:0.11623768"
       d="m 112.89622,136.5471 -8.73637,6.88942 3.14475,1.93753 -4.56731,4.04784 2.17791,1.28614 -5.769938,7.0118 10.713678,-7.07881 -2.32154,-1.63495 4.34143,-3.92503 -3.30375,-2.17688 z m 0,0"
       id="path6" />
    <path
       inkscape:connector-curvature="0"
       style="fill:#d7d7d7;stroke-width:0.11623768"
       d="m 102.4208,145.78196 c 0,-1.06721 -0.56913,-2.02246 -1.46563,-2.66386 0.8965,-0.64182 1.46563,-1.59665 1.46563,-2.66386 0,-1.93214 -1.86388,-3.4984 -4.163119,-3.4984 -2.299268,0 -4.163137,1.56626 -4.163137,3.4984 0,1.06721 0.569104,2.02204 1.465633,2.66386 -0.896529,0.6414 -1.465633,1.59665 -1.465633,2.66386 0,1.03767 0.538396,1.9696 1.39233,2.6106 -0.85442,0.64057 -1.39233,1.57251 -1.39233,2.61058 0,1.93214 1.863869,3.4984 4.163137,3.4984 2.299239,0 4.163119,-1.56626 4.163119,-3.4984 0,-1.03807 -0.53842,-1.97001 -1.39233,-2.61058 0.85391,-0.641 1.39233,-1.57293 1.39233,-2.6106 z m 0,0"
       id="path8" />
    <path
       inkscape:connector-curvature="0"
       style="fill:#e6e6e6;stroke-width:0.11623768"
       d="m 78.201862,145.78196 c 0,-1.06721 -0.569124,-2.02246 -1.465643,-2.66386 0.896519,-0.64182 1.465643,-1.59665 1.465643,-2.66386 0,-1.93214 -1.863879,-3.4984 -4.163137,-3.4984 -2.299247,0 -4.163116,1.56626 -4.163116,3.4984 0,1.06721 0.569113,2.02204 1.465633,2.66386 -0.89652,0.6414 -1.465633,1.59665 -1.465633,2.66386 0,1.03767 0.538406,1.9696 1.39233,2.6106 -0.854421,0.64057 -1.39233,1.57251 -1.39233,2.61058 0,1.93214 1.863869,3.4984 4.163116,3.4984 2.299258,0 4.163137,-1.56626 4.163137,-3.4984 0,-1.03807 -0.538416,-1.97001 -1.39233,-2.61058 0.853914,-0.641 1.39233,-1.57293 1.39233,-2.6106 z m 0,0"
       id="path10" />
    <path
       inkscape:connector-curvature="0"
       style="fill:#faa68e;stroke-width:0.11623768"
       d="m 109.42602,164.39988 -4.1641,-4.42409 -12.925258,-3.95543 c -1.192204,-0.36503 -1.98521,-1.31735 -1.98521,-2.38375 v -2.35251 h -8.406498 v 2.35251 c 0,1.0664 -0.792996,2.01872 -1.98523,2.38375 l -12.925246,3.95543 -3.992243,4.57227 c 5.885837,5.01306 14.063488,8.12103 23.105958,8.12103 9.131147,0 17.380127,-3.16958 23.277827,-8.26921 z m 0,0"
       id="path12" />
    <path
       inkscape:connector-curvature="0"
       style="fill:#e09380;stroke-width:0.11623768"
       d="m 105.26192,159.97579 -12.925258,-3.95543 c -1.192204,-0.36503 -1.98521,-1.31735 -1.98521,-2.38375 v -2.35251 h -4.227521 v 21.38458 c 0.0089,0 0.01639,2.9e-4 0.02423,2.9e-4 9.131137,0 17.380109,-3.16958 23.277819,-8.26921 z m 0,0"
       id="path14" />
    <path
       inkscape:connector-curvature="0"
       style="fill:#ffbeaa;stroke-width:0.11623768"
       d="m 78.878453,141.36745 c 0,1.67574 -1.616212,3.03388 -3.61035,3.03388 -1.993642,0 -3.609864,-1.35814 -3.609864,-3.03388 0,-1.67533 1.616222,-3.03348 3.609864,-3.03348 1.994138,0 3.61035,1.35815 3.61035,3.03348 z m 0,0"
       id="path16" />
    <path
       inkscape:connector-curvature="0"
       style="fill:#faa68e;stroke-width:0.11623768"
       d="m 100.63815,141.36745 c 0,1.67574 -1.616205,3.03388 -3.609856,3.03388 -1.994138,0 -3.61035,-1.35814 -3.61035,-3.03388 0,-1.67533 1.616212,-3.03348 3.61035,-3.03348 1.993651,0 3.609856,1.35815 3.609856,3.03348 z m 0,0"
       id="path18" />
    <path
       inkscape:connector-curvature="0"
       style="fill:#ffbeaa;stroke-width:0.11623768"
       d="m 90.955236,152.72591 -2.410697,1.04058 c -1.504286,0.64929 -3.288406,0.64929 -4.792176,0 l -2.410707,-1.04058 c -3.57271,-1.54255 -5.818964,-4.63387 -5.818964,-8.00908 v -7.8967 c 0,-4.93146 4.757009,-8.92934 10.626008,-8.92934 5.867995,0 10.625491,3.99788 10.625491,8.92934 v 7.8967 c 0,3.37521 -2.246254,6.46695 -5.818955,8.00908 z m 0,0"
       id="path20" />
    <path
       inkscape:connector-curvature="0"
       style="fill:#faa68e;stroke-width:0.11623768"
       d="m 86.148193,127.89079 c -0.0079,0 -0.01639,4e-4 -0.02423,4e-4 v 26.36144 c 0.830158,0.004 1.660793,-0.15817 2.420112,-0.48616 l 2.411203,-1.04058 c 3.57269,-1.54254 5.818955,-4.63387 5.818955,-8.00907 v -7.89669 c 0,-4.93147 -4.757496,-8.92935 -10.625998,-8.92935 z m 0,0"
       id="path22" />
    <path
       inkscape:connector-curvature="0"
       style="fill:#ffffff;stroke-width:0.11623768"
       d="m 89.825917,163.18575 h -7.355428 c -4.026422,0 -7.290547,-2.74295 -7.290547,-6.12648 v -10.00698 c 0,-1.27033 1.225405,-2.30049 2.737597,-2.30049 h 16.460822 c 1.512191,0 2.738103,1.03016 2.738103,2.30049 v 10.00698 c 0,3.38353 -3.264135,6.12648 -7.290547,6.12648 z m 0,0"
       id="path24" />
    <path
       inkscape:connector-curvature="0"
       style="fill:#f2f6fc;stroke-width:0.11623768"
       d="m 94.378858,144.7518 h -8.254927 v 18.43395 h 3.701986 c 4.026412,0 7.290547,-2.74295 7.290547,-6.12648 v -10.00698 c 0,-1.27033 -1.225912,-2.30049 -2.737606,-2.30049 z m 0,0"
       id="path26" />
    <path
       inkscape:connector-curvature="0"
       style="fill:#ffbeaa;stroke-width:0.11623768"
       d="m 82.55568,148.19693 h 7.185533 v 1.56293 H 82.55568 Z m 0,0"
       id="path28" />
    <path
       inkscape:connector-curvature="0"
       style="fill:#faa68e;stroke-width:0.11623768"
       d="m 86.123931,148.19693 h 3.617282 v 1.56293 h -3.617282 z m 0,0"
       id="path30" />
    <path
       inkscape:connector-curvature="0"
       style="fill:#ffffff;stroke-width:0.11623768"
       d="m 97.524094,131.61604 c 0.03665,-0.18772 0.05701,-0.38002 0.05701,-0.57606 0,-1.93214 -1.863869,-3.49883 -4.163127,-3.49883 -0.953485,0 -1.831661,0.27014 -2.533527,0.723 -0.850458,-0.92403 -2.18186,-1.52006 -3.6797,-1.52006 -0.53939,0 -1.057,0.0782 -1.538937,0.22017 -0.734559,-0.40831 -1.614235,-0.64639 -2.560788,-0.64639 -1.989183,0 -3.686136,1.05014 -4.349856,2.52692 -0.353654,-0.0724 -0.722662,-0.11155 -1.102564,-0.11155 -2.567721,0 -4.649533,1.74899 -4.649533,3.90713 0,0.29512 0.04062,0.58272 0.114419,0.8591 -1.061459,0.71634 -1.741525,1.81476 -1.741525,3.04763 0,2.15773 2.081315,3.90714 4.649522,3.90714 2.567712,0 4.649533,-1.749 4.649533,-3.90714 0,-0.0208 -0.002,-0.0417 -0.002,-0.0628 0.267967,0.0408 0.543858,0.0628 0.826186,0.0628 1.841086,0 3.432043,-0.89948 4.184916,-2.20393 0.476991,0.1386 0.988155,0.21519 1.521119,0.21519 1.249181,0 2.382959,-0.41538 3.218063,-1.08927 0.649359,0.56482 1.522093,0.94609 2.498867,1.04348 -0.03724,0.18773 -0.0574,0.38002 -0.0574,0.57607 0,1.93213 1.864366,3.49882 4.163624,3.49882 2.299248,0 4.163124,-1.56669 4.163124,-3.49882 0,-1.79103 -1.601859,-3.26657 -3.667313,-3.4726 z m 0,0"
       id="path32" />
    <path
       inkscape:connector-curvature="0"
       style="fill:#f2f6fc;stroke-width:0.11623768"
       d="m 97.524094,131.61604 c 0.03665,-0.18772 0.05701,-0.38002 0.05701,-0.57606 0,-1.93214 -1.863869,-3.49883 -4.163127,-3.49883 -0.953485,0 -1.831661,0.27014 -2.533527,0.723 -0.850458,-0.92403 -2.18186,-1.52006 -3.6797,-1.52006 -0.372464,0 -0.733557,0.0379 -1.080775,0.10779 v 7.59826 c 0.347218,0.0699 0.708311,0.10822 1.080775,0.10822 1.249687,0 2.383465,-0.41538 3.218559,-1.08927 0.648863,0.56482 1.521616,0.94609 2.498858,1.04348 -0.03704,0.18773 -0.0574,0.38002 -0.0574,0.57607 0,1.93213 1.863879,3.49882 4.163136,3.49882 2.299248,0 4.163627,-1.56669 4.163627,-3.49882 0,-1.79103 -1.601865,-3.26657 -3.667339,-3.4726 z m 0,0"
       id="path34" />
    <path
       inkscape:connector-curvature="0"
       style="fill:#e6e6e6;stroke-width:0.11623768"
       d="m 86.148193,172.66909 c 5.542576,0 10.75875,-1.1696 15.323077,-3.22785 l 1.73361,-10.09479 -2.79903,-0.8566 c -1.008462,1.96418 -6.071077,8.55559 -29.240442,11.10415 4.482597,1.96378 9.577907,3.07509 14.982785,3.07509 z m 0,0"
       id="path36" />
    <path
       inkscape:connector-curvature="0"
       style="fill:#d7d7d7;stroke-width:0.11623768"
       d="m 100.40585,158.48985 c -0.739015,1.43932 -3.656418,5.36436 -14.281919,8.3616 v 5.81764 h 0.02423 c 5.542576,0 10.75874,-1.1696 15.323079,-3.22785 l 1.7336,-10.09479 z m 0,0"
       id="path38" />
    <ellipse
       style="fill:#ffffff;stroke-width:0.20662907"
       id="path252"
       cx="82.221481"
       cy="140.3799"
       rx="2.4236968"
       ry="1.6757891" />
    <ellipse
       style="fill:#00617e;fill-opacity:1;stroke-width:0.29469866"
       id="path1069"
       cx="82.385742"
       cy="140.32426"
       rx="0.92003798"
       ry="0.78808075" />
    <ellipse
       style="fill:#ffffff;stroke-width:0.20662907"
       id="path252-2"
       cx="90.42408"
       cy="140.21448"
       rx="2.4236968"
       ry="1.6757891" />
    <ellipse
       style="fill:#00617e;fill-opacity:1;stroke-width:0.29469866"
       id="path1069-2"
       cx="90.382858"
       cy="140.03352"
       rx="0.92003798"
       ry="0.78808075" />
    <path
       style="fill:#f2f2f2;fill-opacity:1;stroke-width:0.20662907"
       id="path1142"
       d="m 80.323528,138.84957 c -0.01718,-0.16354 0.01202,-0.32616 0.06406,-0.48369 0.04419,-0.0964 0.117636,-0.18216 0.194475,-0.26296 0.518891,-0.49085 0.627738,-0.62828 1.179393,-0.75197 0.146209,-0.0262 0.288842,-0.0734 0.438984,-0.0787 0.131858,-0.004 0.259366,-0.0144 0.390946,-0.008 0.134331,5.9e-4 0.269496,0.0201 0.393548,0.0626 0.112363,0.022 0.21686,0.0602 0.324397,0.0936 0.09872,0.0389 0.189181,0.0899 0.286895,0.13008 0.05274,0.043 0.128045,0.0459 0.189569,0.0746 0.03307,0.0154 0.06336,0.0346 0.09633,0.0502 0.08114,0.0594 0.177949,0.091 0.273816,0.12854 0.10274,0.0248 0.188347,0.0805 0.292527,0.10117 0.112839,0.0197 0.219661,0.0305 0.33544,0.0206 0.133497,-0.022 0.27755,-0.0303 0.398712,-0.0839 0.01837,-0.008 0.03863,-0.014 0.05532,-0.0245 0.03009,-0.0187 0.05134,-0.0459 0.08114,-0.065 0.04956,-0.0317 0.105291,-0.0523 0.162287,-0.0731 0.359067,-0.20316 0.83141,-0.62032 -0.531087,0.45833 0.08799,-0.0565 0.118034,-0.14272 0.178327,-0.21527 0.07637,-0.0763 0.107933,-0.15536 0.129673,-0.25082 0.01579,-0.0735 0.006,-0.0375 0.03079,-0.10834 0,0 0.893868,-0.56101 0.893868,-0.56101 v 0 c -0.0434,0.054 -0.02602,0.0247 -0.05105,0.0885 -0.01192,0.0962 -0.01321,0.20612 -0.09996,0.27901 -0.07299,0.11116 0.02314,-0.0273 -0.06108,0.0705 -0.0436,0.0506 -0.03347,0.12242 -0.104259,0.15957 -0.333722,0.26726 -0.655258,0.61179 -1.083784,0.80294 -0.103435,0.0521 -0.189083,0.12614 -0.307752,0.15608 -0.139346,0.0319 -0.28189,0.0574 -0.426689,0.065 -0.125015,9.9e-4 -0.24585,-0.016 -0.366704,-0.0418 -0.103395,-0.0316 -0.198606,-0.0784 -0.302746,-0.10884 -0.10119,-0.0358 -0.194266,-0.0806 -0.282417,-0.13527 -0.09196,-0.0455 -0.191982,-0.0742 -0.282367,-0.1219 -0.09186,-0.0421 -0.181792,-0.0873 -0.277768,-0.1232 -0.105401,-0.0359 -0.213782,-0.0633 -0.321944,-0.0929 -0.119265,-0.0313 -0.242522,-0.0432 -0.367697,-0.0432 -0.12579,-0.003 -0.251192,0.0115 -0.376774,0.0164 -0.143021,0.0225 -0.282993,0.0569 -0.423342,0.0885 -0.453781,0.11732 -0.869894,0.50884 0.454894,-0.49274 -0.09921,0.0606 -0.152108,0.15248 -0.228083,0.23081 -0.07488,0.14031 -0.101289,0.29798 -0.09623,0.45036 0,0 -0.853686,0.5993 -0.853686,0.5993 z"
       inkscape:connector-curvature="0"
       inkscape:transform-center-x="0.15147546"
       inkscape:transform-center-y="-0.00027956156" />
    <path
       style="fill:#f2f2f2;fill-opacity:1;stroke-width:0.19138741"
       id="path1142-6"
       d="m 88.229935,138.50073 c -0.01817,-0.14057 0.01003,-0.27967 0.06118,-0.41406 0.0436,-0.0821 0.116514,-0.15459 0.192866,-0.22277 0.515862,-0.41356 0.623865,-0.5299 1.174755,-0.62795 0.14605,-0.0203 0.288386,-0.0587 0.438498,-0.061 0.131828,-0.002 0.259276,-0.009 0.390886,-9.9e-4 0.134331,0.002 0.269615,0.0212 0.393955,0.0594 0.112542,0.0204 0.217228,0.0546 0.324963,0.0851 0.09901,0.0348 0.189738,0.0799 0.28769,0.11582 0.05293,0.0378 0.128323,0.0413 0.190016,0.0667 0.03307,0.0138 0.06356,0.0306 0.09663,0.0445 0.08154,0.0522 0.178515,0.0807 0.2746,0.11429 0.102948,0.0225 0.188854,0.0718 0.293133,0.0911 0.112959,0.0186 0.219849,0.0294 0.335559,0.0228 0.133368,-0.017 0.277362,-0.022 0.398186,-0.0662 0.01827,-0.007 0.03853,-0.0114 0.05522,-0.0203 0.02989,-0.0157 0.05105,-0.0387 0.08074,-0.0545 0.04946,-0.0266 0.104964,-0.0432 0.161831,-0.0603 0.357825,-0.16903 0.827576,-0.52006 -0.528267,0.38548 0.08769,-0.0472 0.11714,-0.12074 0.177006,-0.18209 0.07587,-0.0644 0.10695,-0.13173 0.128124,-0.21331 0.01529,-0.0629 0.006,-0.032 0.03029,-0.0924 0,0 0.890402,-0.46826 0.890402,-0.46826 v 0 c -0.043,0.0456 -0.02582,0.0208 -0.05065,0.0752 -0.01122,0.0824 -0.01162,0.17668 -0.09822,0.23793 -0.0724,0.0943 0.02304,-0.023 -0.06068,0.0595 -0.0433,0.0429 -0.03297,0.10449 -0.103245,0.13539 -0.332094,0.22441 -0.651504,0.51532 -1.078849,0.67305 -0.103117,0.0431 -0.188317,0.10545 -0.306798,0.12941 -0.139157,0.0254 -0.281533,0.045 -0.426302,0.0495 -0.125005,-4.6e-4 -0.245929,-0.0173 -0.366962,-0.0413 -0.103583,-0.0286 -0.199073,-0.0701 -0.303401,-0.0978 -0.101399,-0.0322 -0.194763,-0.072 -0.283241,-0.1202 -0.09226,-0.0404 -0.192429,-0.0665 -0.283102,-0.10874 -0.09216,-0.0376 -0.182339,-0.0776 -0.278534,-0.10977 -0.105609,-0.0324 -0.214159,-0.0575 -0.322499,-0.0844 -0.119464,-0.0286 -0.242821,-0.0407 -0.367945,-0.0426 -0.125771,-0.005 -0.251124,0.006 -0.376665,0.009 -0.142882,0.0173 -0.282645,0.0446 -0.422796,0.0697 -0.453067,0.094 -0.866765,0.42385 0.451855,-0.41613 -0.09882,0.0506 -0.151165,0.12862 -0.226663,0.19471 -0.07399,0.11929 -0.09945,0.2542 -0.09345,0.38501 0,0 -0.849992,0.50168 -0.849992,0.50168 z"
       inkscape:connector-curvature="0" />
  </g>
</svg>
