<?xml version="1.0" encoding="UTF-8" standalone="no"?>
<!-- Created with Inkscape (http://www.inkscape.org/) -->

<svg
   xmlns:dc="http://purl.org/dc/elements/1.1/"
   xmlns:cc="http://creativecommons.org/ns#"
   xmlns:rdf="http://www.w3.org/1999/02/22-rdf-syntax-ns#"
   xmlns:svg="http://www.w3.org/2000/svg"
   xmlns="http://www.w3.org/2000/svg"
   xmlns:sodipodi="http://sodipodi.sourceforge.net/DTD/sodipodi-0.dtd"
   xmlns:inkscape="http://www.inkscape.org/namespaces/inkscape"
   width="210mm"
   height="297mm"
   version="1.1"
   viewBox="0 0 210 297"
   id="svg1687"
   sodipodi:docname="lvl_2.svg"
   inkscape:version="0.92.4 (5da689c313, 2019-01-14)">
  <defs
     id="defs1691" />
  <sodipodi:namedview
     pagecolor="#ffffff"
     bordercolor="#666666"
     borderopacity="1"
     objecttolerance="10"
     gridtolerance="10"
     guidetolerance="10"
     inkscape:pageopacity="0"
     inkscape:pageshadow="2"
     inkscape:window-width="1280"
     inkscape:window-height="961"
     id="namedview1689"
     showgrid="false"
     inkscape:zoom="0.84096521"
     inkscape:cx="396.85039"
     inkscape:cy="561.25984"
     inkscape:window-x="1912"
     inkscape:window-y="50"
     inkscape:window-maximized="1"
     inkscape:current-layer="svg1687" />
  <metadata
     id="metadata1639">
    <rdf:RDF>
      <cc:Work
         rdf:about="">
        <dc:format>image/svg+xml</dc:format>
        <dc:type
           rdf:resource="http://purl.org/dc/dcmitype/StillImage" />
        <dc:title />
      </cc:Work>
    </rdf:RDF>
  </metadata>
  <g
     id="g1685">
    <g
       fill="#8787be"
       fill-rule="evenodd"
       opacity=".868"
       id="g1655">
      <path
         d="m44.819 231.81v35.523l48.635-14.861v-31.254z"
         points="44.81876,267.3332 93.453539,252.47238 93.453539,221.21789 44.81876,231.81005 "
         fill="#353564"
         id="path1641" />
      <path
         d="m44.819 267.33 48.464 29.237 53.917-23.141-53.746-20.958z"
         points="93.282833,296.57045 147.19945,273.4299 93.453539,252.47238 44.81876,267.3332 "
         fill="#afafde"
         id="path1643" />
      <path
         d="m93.454 221.22 53.746 12.85v39.362l-53.746-20.958z"
         points="147.19945,234.06773 147.19945,273.4299 93.453539,252.47238 93.453539,221.21789 "
         fill="#e9e9ff"
         id="path1645" />
      <g
         id="g1653">
        <path
           d="m44.819 231.81 48.464 18.379 53.917-16.121-53.746-12.85z"
           points="93.282833,250.18901 147.19945,234.06773 93.453539,221.21789 44.81876,231.81005 "
           fill="#6d9f4d"
           id="path1647" />
        <path
           d="m93.283 250.19v46.381l53.917-23.141v-39.362z"
           points="93.282833,296.57045 147.19945,273.4299 147.19945,234.06773 93.282833,250.18901 "
           fill="#d7ffec"
           id="path1649" />
        <path
           d="m44.819 231.81 48.464 18.379v46.381l-48.464-29.237z"
           points="93.282833,250.18901 93.282833,296.57045 44.81876,267.3332 44.81876,231.81005 "
           fill="#97bf86"
           id="path1651" />
      </g>
    </g>
    <g
       fill-rule="evenodd"
       opacity=".868"
       id="g1669">
      <path
         d="m93.454 221.22 53.928-11.745z"
         points="93.453539,221.21789 147.38203,209.47283 147.38203,209.47283 93.453539,221.21789 "
         fill="#353564"
         id="path1657" />
      <path
         d="m93.454 221.22 53.928-11.745z"
         points="93.453539,221.21789 147.38203,209.47283 147.38203,209.47283 93.453539,221.21789 "
         fill="#afafde"
         id="path1659" />
      <path
         d="m93.454 221.22 53.928-11.745z"
         points="93.453539,221.21789 147.38203,209.47283 147.38203,209.47283 93.453539,221.21789 "
         fill="#d7d7ff"
         id="path1661" />
      <path
         d="m147.38 209.47z"
         points="147.38203,209.47283 147.38203,209.47283 147.38203,209.47283 147.38203,209.47283 "
         fill="#e9e9ff"
         id="path1663" />
      <path
         d="m93.454 221.22 53.928-11.745z"
         points="93.453539,221.21789 147.38203,209.47283 147.38203,209.47283 93.453539,221.21789 "
         fill="#4d4d9f"
         id="path1665" />
      <path
         d="m93.454 221.22z"
         points="93.453539,221.21789 93.453539,221.21789 93.453539,221.21789 93.453539,221.21789 "
         fill="#8686bf"
         id="path1667" />
    </g>
    <g
       fill-rule="evenodd"
       id="g1677">
      <path
         d="m52.185 196.14v37.498l42.726-9.6741v-33.466z"
         fill="#353564"
         id="path1671" />
      <path
         d="m52.185 233.64 41.098 15.346 46.555-13.763-44.927-11.257z"
         fill="#afafde"
         id="path1673" />
      <path
         d="m94.911 190.5 44.927 4.0512v40.672l-44.927-11.257z"
         fill="#e9e9ff"
         id="path1675" />
    </g>
    <path
       d="m52.185 196.14 41.098 6.0578 46.555-7.6488-44.927-4.0512z"
       fill="#9d9f4d"
       id="path1679" />
    <path
       d="m93.283 202.2v46.786l46.555-13.763v-40.672z"
       fill="#faffd7"
       id="path1681" />
    <path
       d="m52.185 196.14 41.098 6.0578v46.786l-41.098-15.346z"
       fill="#bfbc86"
       id="path1683" />
  </g>
</svg>
