<?xml version="1.0" encoding="UTF-8" standalone="no"?>
<!-- Created with Inkscape (http://www.inkscape.org/) -->

<svg
   xmlns:osb="http://www.openswatchbook.org/uri/2009/osb"
   xmlns:dc="http://purl.org/dc/elements/1.1/"
   xmlns:cc="http://creativecommons.org/ns#"
   xmlns:rdf="http://www.w3.org/1999/02/22-rdf-syntax-ns#"
   xmlns:svg="http://www.w3.org/2000/svg"
   xmlns="http://www.w3.org/2000/svg"
   xmlns:sodipodi="http://sodipodi.sourceforge.net/DTD/sodipodi-0.dtd"
   xmlns:inkscape="http://www.inkscape.org/namespaces/inkscape"
   width="680"
   height="680.51971"
   viewBox="0 0 179.91666 180.05418"
   version="1.1"
   id="svg5304"
   inkscape:version="0.92.4 (5da689c313, 2019-01-14)"
   sodipodi:docname="lvl_1_JU.svg"
   inkscape:export-filename="/media/goofy/1ffc4969-9bf9-4884-8765-70536da6acb2/Faks/III_godina/Vestacka Inteligencija/Santorini project/Santorini_front-end/public/images/lvl_1_JU.png"
   inkscape:export-xdpi="96"
   inkscape:export-ydpi="96">
  <defs
     id="defs5298">
    <inkscape:perspective
       sodipodi:type="inkscape:persp3d"
       inkscape:vp_x="-692.18233 : 323.03838 : 1"
       inkscape:vp_y="0 : 7601.3112 : 0"
       inkscape:vp_z="1436.7571 : 428.93647 : 1"
       inkscape:persp3d-origin="404.71866 : -58.521432 : 1"
       id="perspective6615" />
    <linearGradient
       id="linearGradient6431"
       osb:paint="solid">
      <stop
         style="stop-color:#b90a53;stop-opacity:1;"
         offset="0"
         id="stop6429" />
    </linearGradient>
    <inkscape:perspective
       sodipodi:type="inkscape:persp3d"
       inkscape:vp_x="-274.81031 : 169.24862 : 1"
       inkscape:vp_y="0 : 2707.3677 : 0"
       inkscape:vp_z="703.94981 : 206.96645 : 1"
       inkscape:persp3d-origin="229.47973 : 33.348016 : 1"
       id="perspective5306" />
    <inkscape:perspective
       sodipodi:type="inkscape:persp3d"
       inkscape:vp_x="-68.08223 : 172.69745 : 1"
       inkscape:vp_y="0 : 1434.2155 : 0"
       inkscape:vp_z="354.20068 : 172.69745 : 1"
       inkscape:persp3d-origin="143.05921 : 101.70379 : 1"
       id="perspective5306-6" />
  </defs>
  <sodipodi:namedview
     id="base"
     pagecolor="#ffffff"
     bordercolor="#666666"
     borderopacity="1.0"
     inkscape:pageopacity="0.0"
     inkscape:pageshadow="2"
     inkscape:zoom="0.75544332"
     inkscape:cx="-1.6890146"
     inkscape:cy="213.35495"
     inkscape:document-units="mm"
     inkscape:current-layer="layer1"
     showgrid="false"
     inkscape:window-width="1920"
     inkscape:window-height="1000"
     inkscape:window-x="0"
     inkscape:window-y="27"
     inkscape:window-maximized="1"
     units="px" />
  <metadata
     id="metadata5301">
    <rdf:RDF>
      <cc:Work
         rdf:about="">
        <dc:format>image/svg+xml</dc:format>
        <dc:type
           rdf:resource="http://purl.org/dc/dcmitype/StillImage" />
        <dc:title />
      </cc:Work>
    </rdf:RDF>
  </metadata>
  <g
     inkscape:label="Layer 1"
     inkscape:groupmode="layer"
     id="layer1"
     transform="translate(0,-116.9458)">
    <g
       sodipodi:type="inkscape:box3d"
       id="g6503"
       style="opacity:0.86799999;fill:#8787be;fill-opacity:1"
       inkscape:perspectiveID="#perspective5306"
       inkscape:corner0="0.83045816 : -0.0045277069 : 0 : 1"
       inkscape:corner7="0.40193245 : -0.036858797 : 0.25 : 1">
      <path
         sodipodi:type="inkscape:box3dside"
         id="path6505"
         style="fill:#353564;fill-rule:evenodd;stroke:none;stroke-width:1.52940798;stroke-linejoin:round"
         inkscape:box3dsidetype="6"
         d="m 0.6890437,208.69217 v 47.8198 L 85.196967,236.50695 v -42.07349 z"
         points="0.6890437,256.51197 85.196967,236.50695 85.196967,194.43346 0.6890437,208.69217 " />
      <path
         sodipodi:type="inkscape:box3dside"
         id="path6513"
         style="fill:#afafde;fill-rule:evenodd;stroke:none;stroke-width:1.52940798;stroke-linejoin:round"
         inkscape:box3dsidetype="13"
         d="M 0.6890437,256.51197 84.900348,295.86995 178.586,264.7191 85.196967,236.50695 Z"
         points="84.900348,295.86995 178.586,264.7191 85.196967,236.50695 0.6890437,256.51197 " />
      <path
         sodipodi:type="inkscape:box3dside"
         id="path6515"
         style="fill:#e9e9ff;fill-rule:evenodd;stroke:none;stroke-width:1.52940798;stroke-linejoin:round"
         inkscape:box3dsidetype="11"
         d="M 85.196967,194.43346 178.586,211.73137 V 264.7191 L 85.196967,236.50695 Z"
         points="178.586,211.73137 178.586,264.7191 85.196967,236.50695 85.196967,194.43346 " />
      <path
         sodipodi:type="inkscape:box3dside"
         id="path6507"
         style="fill:#6d9f4d;fill-opacity:1;fill-rule:evenodd;stroke:none;stroke-width:1.52940798;stroke-linejoin:round"
         inkscape:box3dsidetype="5"
         d="M 0.6890437,208.69217 84.900348,233.43318 178.586,211.73137 85.196967,194.43346 Z"
         points="84.900348,233.43318 178.586,211.73137 85.196967,194.43346 0.6890437,208.69217 " />
      <path
         sodipodi:type="inkscape:box3dside"
         id="path6511"
         style="fill:#d7ffec;fill-opacity:1;fill-rule:evenodd;stroke:none;stroke-width:1.52940798;stroke-linejoin:round"
         inkscape:box3dsidetype="14"
         d="m 84.900348,233.43318 v 62.43677 L 178.586,264.7191 v -52.98773 z"
         points="84.900348,295.86995 178.586,264.7191 178.586,211.73137 84.900348,233.43318 " />
      <path
         sodipodi:type="inkscape:box3dside"
         id="path6509"
         style="fill:#97bf86;fill-opacity:1;fill-rule:evenodd;stroke:none;stroke-width:1.52940798;stroke-linejoin:round"
         inkscape:box3dsidetype="3"
         d="m 0.6890437,208.69217 84.2113043,24.74101 v 62.43677 L 0.6890437,256.51197 Z"
         points="84.900348,233.43318 84.900348,295.86995 0.6890437,256.51197 0.6890437,208.69217 " />
    </g>
    <g
       sodipodi:type="inkscape:box3d"
       id="g6587"
       style="opacity:0.86799999;fill:#8787be;fill-opacity:1"
       inkscape:perspectiveID="#perspective5306"
       inkscape:corner0="0.40077736 : 0.015695626 : 0 : 1"
       inkscape:corner7="0.40077736 : 0.015695626 : 0.25 : 1">
      <path
         sodipodi:type="inkscape:box3dside"
         id="path6589"
         style="fill:#353564;fill-rule:evenodd;stroke:none;stroke-width:1.52940798;stroke-linejoin:round"
         inkscape:box3dsidetype="6"
         d="m 85.196968,194.43346 v 0 l 93.706282,-15.81073 v 0 z"
         points="85.196968,194.43346 178.90325,178.62273 178.90325,178.62273 85.196968,194.43346 " />
      <path
         sodipodi:type="inkscape:box3dside"
         id="path6597"
         style="fill:#afafde;fill-rule:evenodd;stroke:none;stroke-width:1.52940798;stroke-linejoin:round"
         inkscape:box3dsidetype="13"
         d="m 85.196968,194.43346 v 0 l 93.706282,-15.81073 v 0 z"
         points="85.196968,194.43346 178.90325,178.62273 178.90325,178.62273 85.196968,194.43346 " />
      <path
         sodipodi:type="inkscape:box3dside"
         id="path6599"
         style="fill:#e9e9ff;fill-rule:evenodd;stroke:none;stroke-width:1.52940798;stroke-linejoin:round"
         inkscape:box3dsidetype="11"
         d="m 178.90325,178.62273 v 0 0 z"
         points="178.90325,178.62273 178.90325,178.62273 " />
      <path
         sodipodi:type="inkscape:box3dside"
         id="path6591"
         style="fill:#4d4d9f;fill-rule:evenodd;stroke:none;stroke-width:1.52940798;stroke-linejoin:round"
         inkscape:box3dsidetype="5"
         d="m 85.196968,194.43346 v 0 l 93.706282,-15.81073 v 0 z"
         points="85.196968,194.43346 178.90325,178.62273 178.90325,178.62273 85.196968,194.43346 " />
      <path
         sodipodi:type="inkscape:box3dside"
         id="path6595"
         style="fill:#d7d7ff;fill-rule:evenodd;stroke:none;stroke-width:1.52940798;stroke-linejoin:round"
         inkscape:box3dsidetype="14"
         d="m 85.196968,194.43346 v 0 l 93.706282,-15.81073 v 0 z"
         points="85.196968,194.43346 178.90325,178.62273 178.90325,178.62273 85.196968,194.43346 " />
      <path
         sodipodi:type="inkscape:box3dside"
         id="path6593"
         style="fill:#8686bf;fill-rule:evenodd;stroke:none;stroke-width:1.52940798;stroke-linejoin:round"
         inkscape:box3dsidetype="3"
         d="m 85.196968,194.43346 v 0 0 z"
         points="85.196968,194.43346 85.196968,194.43346 " />
    </g>
    <path
       inkscape:connector-curvature="0"
       style="fill:#00617e;fill-opacity:1;stroke-width:0.20653963"
       d="m 140.00631,171.81117 c 0,29.21401 -23.66241,52.89595 -52.852354,52.89595 -29.189929,0 -52.852366,-23.68194 -52.852366,-52.89595 0,-29.21398 23.662437,-52.89592 52.852366,-52.89592 29.189944,0 52.852354,23.68194 52.852354,52.89592 z m 0,0"
       id="path2" />
    <path
       inkscape:connector-curvature="0"
       style="fill:#034051;stroke-width:0.20653963"
       d="m 140.00631,171.81117 c 0,-2.90404 -0.2371,-5.75159 -0.6871,-8.52892 l -8.61465,-8.62093 -4.22909,7.26981 -23.11322,-23.13148 -40.602186,48.80057 35.83115,35.8615 c 3.625036,-0.80065 7.111376,-1.97101 10.414656,-3.47468 l 0.5976,-0.59808 0.21694,0.21712 c 17.84701,-8.49261 30.1859,-26.70062 30.1859,-47.79491 z m 0,0"
       id="path4" />
    <path
       inkscape:connector-curvature="0"
       style="fill:#ffe000;stroke-width:0.20653963"
       d="m 130.70456,154.66132 -14.22438,13.35959 5.12023,3.75716 -7.43641,7.84933 3.54604,2.49403 -9.39451,13.59689 17.44381,-13.72684 -3.77989,-3.17039 7.06863,-7.61122 -5.37908,-4.22127 z m 0,0"
       id="path6" />
    <path
       inkscape:connector-curvature="0"
       style="fill:#d7d7d7;stroke-width:0.20653963"
       d="m 113.6487,172.56907 c 0,-2.06946 -0.92664,-3.92184 -2.38632,-5.16561 1.45968,-1.24458 2.38632,-3.09616 2.38632,-5.16562 0,-3.7467 -3.03474,-6.78391 -6.77832,-6.78391 -3.74363,0 -6.77835,3.03721 -6.77835,6.78391 0,2.06946 0.92662,3.92104 2.38632,5.16562 -1.4597,1.24377 -2.38632,3.09615 -2.38632,5.16561 0,2.01218 0.87662,3.81933 2.26697,5.06234 -1.39116,1.24216 -2.26697,3.0493 -2.26697,5.06228 0,3.74668 3.03472,6.78391 6.77835,6.78391 3.74358,0 6.77832,-3.03723 6.77832,-6.78391 0,-2.01298 -0.87664,-3.82012 -2.26697,-5.06228 1.39033,-1.24301 2.26697,-3.05016 2.26697,-5.06234 z m 0,0"
       id="path8" />
    <path
       inkscape:connector-curvature="0"
       style="fill:#e6e6e6;stroke-width:0.20653963"
       d="m 74.21587,172.56907 c 0,-2.06946 -0.926629,-3.92184 -2.38633,-5.16561 1.459701,-1.24458 2.38633,-3.09616 2.38633,-5.16562 0,-3.7467 -3.034728,-6.78391 -6.778325,-6.78391 -3.743597,0 -6.778316,3.03721 -6.778316,6.78391 0,2.06946 0.926618,3.92104 2.38632,5.16562 -1.459702,1.24377 -2.38632,3.09615 -2.38632,5.16561 0,2.01218 0.876621,3.81933 2.266968,5.06234 -1.391153,1.24216 -2.266968,3.0493 -2.266968,5.06228 0,3.74668 3.034719,6.78391 6.778316,6.78391 3.743597,0 6.778325,-3.03723 6.778325,-6.78391 0,-2.01298 -0.876634,-3.82012 -2.266965,-5.06228 1.390331,-1.24301 2.266965,-3.05016 2.266965,-5.06234 z m 0,0"
       id="path10" />
    <path
       inkscape:connector-curvature="0"
       style="fill:#faa68e;stroke-width:0.20653963"
       d="m 125.05449,208.67192 -6.77995,-8.57895 -21.044651,-7.67016 c -1.941126,-0.70786 -3.23229,-2.55455 -3.23229,-4.62243 v -4.56187 H 80.310311 v 4.56187 c 0,2.06788 -1.291145,3.91457 -3.232308,4.62243 l -21.044651,7.67016 -6.500095,8.86629 c 9.583203,9.72104 22.897914,15.74786 37.620699,15.74786 14.867144,0 28.297974,-6.14627 37.900534,-16.0352 z m 0,0"
       id="path12" />
    <path
       inkscape:connector-curvature="0"
       style="fill:#e09380;stroke-width:0.20653963"
       d="m 118.27454,200.09297 -21.044651,-7.67016 c -1.941126,-0.70786 -3.23229,-2.55455 -3.23229,-4.62243 v -4.56187 h -6.88315 v 41.46781 c 0.01402,0 0.02673,7.2e-4 0.03945,7.2e-4 14.867131,0 28.297951,-6.14629 37.900521,-16.0352 z m 0,0"
       id="path14" />
    <path
       inkscape:connector-curvature="0"
       style="fill:#ffbeaa;stroke-width:0.20653963"
       d="m 75.317491,164.00869 c 0,3.2495 -2.631482,5.88315 -5.878309,5.88315 -3.246006,0 -5.877502,-2.63365 -5.877502,-5.88315 0,-3.24871 2.631496,-5.88236 5.877502,-5.88236 3.246827,0 5.878309,2.63365 5.878309,5.88236 z m 0,0"
       id="path16" />
    <path
       inkscape:connector-curvature="0"
       style="fill:#faa68e;stroke-width:0.20653963"
       d="m 110.74623,164.00869 c 0,3.2495 -2.63148,5.88315 -5.87751,5.88315 -3.24682,0 -5.878307,-2.63365 -5.878307,-5.88315 0,-3.24871 2.631487,-5.88236 5.878307,-5.88236 3.24603,0 5.87751,2.63365 5.87751,5.88236 z m 0,0"
       id="path18" />
    <path
       inkscape:connector-curvature="0"
       style="fill:#ffbeaa;stroke-width:0.20653963"
       d="m 94.98068,186.0344 -3.925041,2.01784 c -2.449255,1.25907 -5.354131,1.25907 -7.802542,0 l -3.925062,-2.01784 c -5.817015,-2.99123 -9.474328,-8.98575 -9.474328,-15.53077 V 155.1908 c 0,-9.56284 7.745269,-17.31531 17.30107,-17.31531 9.55414,0 17.300213,7.75247 17.300213,17.31531 v 15.31283 c 0,6.54502 -3.6573,12.54036 -9.47431,15.53077 z m 0,0"
       id="path20" />
    <path
       inkscape:connector-curvature="0"
       style="fill:#faa68e;stroke-width:0.20653963"
       d="m 87.153956,137.87549 c -0.01259,0 -0.02674,7.6e-4 -0.03945,7.6e-4 v 51.11866 c 1.351635,0.006 2.704061,-0.3067 3.940379,-0.94273 l 3.925871,-2.01784 c 5.816994,-2.99119 9.474304,-8.98574 9.474304,-15.53071 v -15.31286 c 0,-9.56285 -7.746078,-17.3153 -17.301047,-17.3153 z m 0,0"
       id="path22" />
    <path
       inkscape:connector-curvature="0"
       style="fill:#ffffff;stroke-width:0.20653963"
       d="M 93.141954,206.31752 H 81.165972 c -6.555745,0 -11.870335,-5.31898 -11.870335,-11.88011 v -19.40498 c 0,-2.46336 1.995194,-4.46101 4.457317,-4.46101 h 26.801176 c 2.46213,0 4.45814,1.99765 4.45814,4.46101 v 19.40498 c 0,6.56113 -5.314611,11.88011 -11.870316,11.88011 z m 0,0"
       id="path24" />
    <path
       inkscape:connector-curvature="0"
       style="fill:#f2f6fc;stroke-width:0.20653963"
       d="M 100.55494,170.57142 H 87.114449 v 35.7461 h 6.027505 c 6.555736,0 11.870316,-5.31898 11.870316,-11.88011 v -19.40498 c 0,-2.46336 -1.99601,-4.46101 -4.45733,-4.46101 z m 0,0"
       id="path26" />
    <path
       inkscape:connector-curvature="0"
       style="fill:#ffbeaa;stroke-width:0.20653963"
       d="m 81.304685,177.25206 h 11.699363 v 3.03074 H 81.304685 Z m 0,0"
       id="path28" />
    <path
       inkscape:connector-curvature="0"
       style="fill:#faa68e;stroke-width:0.20653963"
       d="m 87.114449,177.25206 h 5.889599 v 3.03074 h -5.889599 z m 0,0"
       id="path30" />
    <path
       inkscape:connector-curvature="0"
       style="fill:#ffffff;stroke-width:0.20653963"
       d="m 105.67599,145.09928 c 0.0596,-0.36401 0.0927,-0.7369 0.0927,-1.11707 0,-3.74667 -3.0347,-6.78472 -6.778299,-6.78472 -1.552453,0 -2.982306,0.52383 -4.125055,1.40199 -1.384706,-1.79183 -3.552469,-2.94762 -5.991221,-2.94762 -0.878213,0 -1.720982,0.15172 -2.505673,0.42695 -1.195988,-0.79177 -2.628265,-1.25345 -4.169419,-1.25345 -3.238753,0 -6.001699,2.03638 -7.082356,4.90008 -0.575811,-0.14045 -1.176623,-0.21632 -1.795185,-0.21632 -4.180705,0 -7.570268,3.39153 -7.570268,7.57649 0,0.57227 0.06615,1.13 0.186288,1.66594 -1.728248,1.38906 -2.835518,3.51906 -2.835518,5.90977 0,4.18416 3.388753,7.57652 7.570272,7.57652 4.180699,0 7.570272,-3.39156 7.570272,-7.57652 0,-0.0405 -0.0036,-0.0808 -0.0036,-0.12186 0.436296,0.0791 0.885506,0.12186 1.345185,0.12186 2.997621,0 5.587987,-1.74421 6.813801,-4.27375 0.776631,0.26879 1.608899,0.4173 2.476649,0.4173 2.033901,0 3.879896,-0.8055 5.239602,-2.11225 1.057259,1.09528 2.478256,1.8346 4.068609,2.02346 -0.06051,0.36403 -0.09347,0.73691 -0.09347,1.11705 0,3.74671 3.035506,6.78474 6.779106,6.78474 3.74359,0 6.77832,-3.03803 6.77832,-6.78474 0,-3.47306 -2.60809,-6.33431 -5.97106,-6.73385 z m 0,0"
       id="path32" />
    <path
       inkscape:connector-curvature="0"
       style="fill:#f2f6fc;stroke-width:0.20653963"
       d="m 105.67599,145.09928 c 0.0596,-0.36401 0.0927,-0.7369 0.0927,-1.11707 0,-3.74667 -3.0347,-6.78472 -6.778299,-6.78472 -1.552453,0 -2.982306,0.52383 -4.125055,1.40199 -1.384706,-1.79183 -3.552469,-2.94762 -5.991221,-2.94762 -0.606444,0 -1.194364,0.0734 -1.759689,0.20904 v 14.73413 c 0.565325,0.13557 1.153245,0.20984 1.759689,0.20984 2.034722,0 3.880707,-0.8055 5.240393,-2.11225 1.056468,1.09528 2.477456,1.8346 4.068614,2.02346 -0.0604,0.36403 -0.09347,0.73691 -0.09347,1.11705 0,3.74671 3.034738,6.78474 6.778328,6.78474 3.74361,0 6.77915,-3.03803 6.77915,-6.78474 0,-3.47306 -2.60812,-6.33431 -5.97107,-6.73385 z m 0,0"
       id="path34" />
    <path
       inkscape:connector-curvature="0"
       style="fill:#e6e6e6;stroke-width:0.20653963"
       d="m 87.153956,224.70712 c 9.02431,0 17.517184,-2.26802 24.948744,-6.25927 l 2.8226,-19.57529 -4.55729,-1.66106 c -1.64197,3.80884 -9.88484,16.59052 -47.608754,21.53257 7.298483,3.80801 15.594572,5.96305 24.3947,5.96305 z m 0,0"
       id="path36" />
    <path
       inkscape:connector-curvature="0"
       style="fill:#d7d7d7;stroke-width:0.20653963"
       d="m 110.36801,197.2115 c -1.20327,2.79106 -5.95333,10.40228 -23.253561,16.21438 v 11.28124 h 0.03945 c 9.024323,0 17.517181,-2.26802 24.948731,-6.25927 l 2.82262,-19.57529 z m 0,0"
       id="path38" />
    <ellipse
       style="fill:#ffffff;stroke-width:0.36715373"
       id="path252"
       cx="80.760529"
       cy="162.09364"
       rx="3.9462168"
       ry="3.2495983" />
    <ellipse
       style="fill:#00617e;fill-opacity:1;stroke-width:0.52364218"
       id="path1069"
       cx="81.027977"
       cy="161.98575"
       rx="1.4979883"
       ry="1.5282027" />
    <ellipse
       style="fill:#ffffff;stroke-width:0.36715373"
       id="path252-2"
       cx="94.115875"
       cy="161.77287"
       rx="3.9462168"
       ry="3.2495983" />
    <ellipse
       style="fill:#00617e;fill-opacity:1;stroke-width:0.52364218"
       id="path1069-2"
       cx="94.048721"
       cy="161.42198"
       rx="1.4979883"
       ry="1.5282027" />
    <path
       style="fill:#f2f2f2;fill-opacity:1;stroke-width:0.36715373"
       id="path1142"
       d="m 77.670333,159.12616 c -0.02803,-0.31715 0.01963,-0.63247 0.104384,-0.93795 0.07202,-0.18698 0.191529,-0.35325 0.316646,-0.50992 0.84484,-0.95183 1.022065,-1.21834 1.92026,-1.45818 0.238065,-0.0508 0.470286,-0.14231 0.714747,-0.15247 0.214689,-0.008 0.422302,-0.028 0.636532,-0.0146 0.218712,10e-4 0.438785,0.0391 0.640774,0.12147 0.182947,0.0427 0.353081,0.11667 0.528172,0.18155 0.160795,0.0753 0.308027,0.17434 0.46711,0.25224 0.08589,0.0838 0.20849,0.0889 0.30866,0.14459 0.0538,0.03 0.103172,0.0671 0.156834,0.0972 0.132135,0.11514 0.289738,0.17663 0.445823,0.24925 0.167285,0.048 0.306662,0.15607 0.476278,0.19618 0.183732,0.0382 0.357652,0.0592 0.546171,0.04 0.217352,-0.0428 0.451907,-0.059 0.649156,-0.16262 0.02993,-0.0159 0.06297,-0.027 0.09002,-0.0475 0.04906,-0.0362 0.0836,-0.0889 0.13218,-0.12598 0.08079,-0.0616 0.171419,-0.10134 0.26424,-0.14171 0.584617,-0.39396 1.353679,-1.2029 -0.864717,0.88875 0.143234,-0.1097 0.192183,-0.27672 0.290351,-0.41743 0.124266,-0.14792 0.175744,-0.30128 0.211126,-0.48637 0.02573,-0.14263 0.0079,-0.0727 0.04996,-0.21009 0,0 1.455403,-1.08786 1.455403,-1.08786 v 0 c -0.07067,0.10475 -0.04246,0.0479 -0.0832,0.17152 -0.01942,0.18655 -0.02153,0.39968 -0.162778,0.54101 -0.11883,0.21558 0.03764,-0.0527 -0.09962,0.13666 -0.07109,0.0982 -0.05466,0.23742 -0.169745,0.30946 -0.543377,0.51825 -1.066892,1.18636 -1.764607,1.55702 -0.168403,0.10097 -0.307851,0.24458 -0.501076,0.30265 -0.226885,0.0622 -0.458965,0.11135 -0.694727,0.12598 -0.203548,0.004 -0.400291,-0.0309 -0.597051,-0.0812 -0.168358,-0.0613 -0.32337,-0.15188 -0.49294,-0.21106 -0.164745,-0.0696 -0.316289,-0.15639 -0.45982,-0.26227 -0.149705,-0.0881 -0.312573,-0.14394 -0.459734,-0.2364 -0.149636,-0.0817 -0.295992,-0.16928 -0.45227,-0.2389 -0.171602,-0.0698 -0.348063,-0.12269 -0.524178,-0.18012 -0.194183,-0.0608 -0.394872,-0.0841 -0.598679,-0.0839 -0.204796,-0.005 -0.408988,0.0224 -0.613452,0.0317 -0.232862,0.0438 -0.460768,0.11029 -0.689282,0.1715 -0.738841,0.22752 -1.416351,0.98674 0.740648,-0.9555 -0.16158,0.1175 -0.247663,0.2957 -0.371358,0.4476 -0.121889,0.27208 -0.164918,0.57783 -0.156612,0.87331 0,0 -1.389941,1.16211 -1.389941,1.16211 z"
       inkscape:connector-curvature="0"
       inkscape:transform-center-x="0.2466655"
       inkscape:transform-center-y="5.8872264e-05" />
    <path
       style="fill:#f2f2f2;fill-opacity:1;stroke-width:0.34007126"
       id="path1142-6"
       d="m 90.54339,158.44971 c -0.02964,-0.27259 0.01632,-0.54234 0.09962,-0.80295 0.07109,-0.15917 0.18972,-0.29975 0.314011,-0.43199 0.839925,-0.80194 1.015778,-1.02753 1.912725,-1.21764 0.237797,-0.0394 0.469548,-0.11395 0.713953,-0.11832 0.214631,-0.004 0.422142,-0.0165 0.636441,-0.004 0.218715,0.004 0.438962,0.0411 0.641416,0.11526 0.183233,0.0396 0.353688,0.10616 0.529101,0.16501 0.161244,0.0675 0.308922,0.15489 0.468408,0.22458 0.0862,0.0733 0.208951,0.08 0.309378,0.12955 0.05401,0.0267 0.103502,0.0593 0.15737,0.0862 0.132745,0.10109 0.290655,0.15657 0.447099,0.22163 0.16761,0.0436 0.307498,0.13923 0.477268,0.1767 0.183923,0.0361 0.357959,0.057 0.546346,0.0444 0.217134,-0.0329 0.451596,-0.0427 0.648316,-0.12817 0.02999,-0.0138 0.06283,-0.0222 0.08994,-0.0394 0.04872,-0.0304 0.08322,-0.0749 0.131477,-0.10569 0.08046,-0.0515 0.170917,-0.084 0.263512,-0.1169 0.582603,-0.32781 1.347449,-1.0085 -0.860121,0.74748 0.142699,-0.0915 0.190713,-0.2341 0.288186,-0.35309 0.123475,-0.12474 0.174146,-0.25544 0.208602,-0.41362 0.0248,-0.12201 0.0077,-0.0623 0.04938,-0.17933 0,0 1.449732,-0.90802 1.449732,-0.90802 v 0 c -0.07006,0.0883 -0.042,0.0403 -0.08249,0.14571 -0.01818,0.15977 -0.0188,0.3426 -0.159961,0.46137 -0.117843,0.18289 0.03749,-0.0447 -0.09882,0.11537 -0.07057,0.083 -0.05372,0.2026 -0.168096,0.26252 -0.540702,0.43518 -1.060768,0.99929 -1.756559,1.30514 -0.167886,0.0838 -0.306628,0.20447 -0.499501,0.25097 -0.226592,0.0492 -0.458397,0.0873 -0.694115,0.096 -0.203533,-7.3e-4 -0.40043,-0.0336 -0.59747,-0.08 -0.168672,-0.0556 -0.32414,-0.13599 -0.494025,-0.1897 -0.165069,-0.0625 -0.317085,-0.13968 -0.461159,-0.23309 -0.150152,-0.0783 -0.313309,-0.129 -0.460947,-0.21086 -0.150041,-0.0729 -0.296869,-0.15036 -0.45349,-0.21284 -0.171958,-0.0629 -0.348691,-0.11148 -0.525084,-0.16375 -0.194516,-0.0556 -0.39536,-0.079 -0.599105,-0.0825 -0.204769,-0.009 -0.408866,0.0123 -0.613284,0.0166 -0.232621,0.0334 -0.460186,0.0866 -0.688372,0.13516 -0.737663,0.18231 -1.411248,0.82191 0.735709,-0.80694 -0.160973,0.098 -0.246137,0.2494 -0.369055,0.37757 -0.120513,0.23133 -0.161925,0.49293 -0.152095,0.74658 0,0 -1.383934,0.97284 -1.383934,0.97284 z"
       inkscape:connector-curvature="0" />
  </g>
</svg>
